<?xml version="1.0" encoding="utf-8"?>
<!-- Generator: Adobe Illustrator 25.0.0, SVG Export Plug-In . SVG Version: 6.00 Build 0)  -->
<svg version="1.1" id="Capa_1" xmlns="http://www.w3.org/2000/svg" xmlns:xlink="http://www.w3.org/1999/xlink" x="0px" y="0px"
	 viewBox="0 0 943.9 935.37" style="enable-background:new 0 0 943.9 935.37;" xml:space="preserve">
<g>
	<path d="M907.65,309.25l-26.96,12.81c19.94,41.96,31.16,87.53,32.98,133.95H817.2c0-4.78,0-9.54-0.21-14.33l-29.86,1.16
		c0.16,4.48,0.13,8.79,0.18,13.18l-203.79,0.13V344.99c12.58-0.33,25.2-0.99,37.83-2.33c27.62-2.91,54.94-8.2,81.66-15.79
		l-8.17-28.72c-25.07,7.13-50.7,12.09-76.61,14.84c-11.58,1.21-23.15,1.87-34.71,2.18V124.75c26.95,1.07,53.68,5.3,79.64,12.63
		l8.2-28.71c-199.5-56.66-407.16,59.14-463.82,258.64c-9.57,33.7-14.38,68.58-14.28,103.62c0.11,15.05,1.1,30.08,2.99,45.01
		L45.61,494.84c-5.63-0.82-11.23,1.66-14.41,6.37L2.63,543.04c-4.67,6.8-2.95,16.09,3.85,20.76c0.97,0.67,2.01,1.21,3.11,1.63
		l203.91,78.82l-67.87,62.21l-55.24-11.75c-4.66-0.98-9.5,0.32-13.05,3.49l-36.22,32.34c-6.14,5.5-6.67,14.94-1.17,21.08
		c1.41,1.57,3.13,2.83,5.06,3.69l97.04,43.16l39.62,102.66c2.97,7.69,11.62,11.52,19.31,8.54c2.08-0.8,3.95-2.06,5.48-3.68
		l32.34-34.25c3.14-3.33,4.59-7.92,3.91-12.45l-12.2-81.96l58.22-58.22l77.46,206.55c1.63,4.35,5.2,7.7,9.64,9.05
		c1.41,0.42,2.86,0.64,4.33,0.64c3.13-0.01,6.17-0.99,8.72-2.81l49.44-35.52c4.59-3.29,6.93-8.89,6.05-14.47l-9.49-59.91
		c42.68,16.4,88.01,24.78,133.73,24.72c208.14-0.87,376.16-170.31,375.29-378.45C943.67,413.7,931.3,359.18,907.65,309.25z
		 M913.7,485.87c-2.97,70.75-27.6,138.88-70.57,195.16c-19.75-12.34-40.19-23.56-61.21-33.59c20.1-51.66,31.83-106.19,34.74-161.54
		L913.7,485.87z M786.81,485.87c-2.91,51.13-13.78,101.5-32.22,149.29c-54.31-22.72-112.23-35.64-171.05-38.14V486.02L786.81,485.87
		z M583.53,627.02c54.9,2.52,108.93,14.65,159.65,35.83c-23.18,51.33-52.67,99.57-87.79,143.6c-23.5,6.11-47.59,9.71-71.85,10.72
		V627.02z M553.67,315.01c-58.83-2.67-116.63-16.38-170.39-40.41c19.49-48.18,46.11-93.16,78.97-133.43
		c29.58-9.63,60.34-15.18,91.42-16.5L553.67,315.01z M407.44,164.43c-20.37,30.64-37.7,63.18-51.74,97.18
		c-14.24-7.22-28.42-15.18-42.53-23.89C340.13,208.04,372.03,183.24,407.44,164.43z M223.51,456.01
		c2.95-70.76,27.59-138.91,70.57-195.21c16.9,10.45,33.89,20.11,51,28.66c-18.97,53.56-28.95,109.88-29.56,166.69L223.51,456.01z
		 M223.73,485.87l92.41,0.1c0.27,5.37,0.55,10.75,1,16.21l29.75-2.48c-0.37-4.61-0.6-9.15-0.84-13.7h10.06v-29.86H345.4
		c0.77-52.39,10.01-104.32,27.36-153.76c57.1,25.34,118.47,39.69,180.89,42.29v111.49h-18.39v29.86h18.41v110.93
		c-43.12,1.05-85.9,7.87-127.21,20.26l8.6,28.6c38.52-11.57,78.4-17.94,118.61-18.94v190.31c-26.12-1.05-52.04-5.1-77.24-12.06
		c-7.58-9.7-15.03-19.41-21.9-29.17c-13.12-18.48-25.15-37.32-35.93-56.03l-16.93-107.01l100.22-118.43
		c2.26-2.68,3.51-6.07,3.52-9.58v-49.46c0-8.24-6.69-14.93-14.94-14.92c-0.85,0-1.7,0.07-2.53,0.22l-55.16,9.51
		c-2.99,0.51-5.76,1.92-7.93,4.05l-101.26,99.5l-96.75-13.54C225.23,508.86,224.23,497.41,223.73,485.87z M387.29,896.97l-78.75-210
		c-2.89-7.72-11.49-11.64-19.22-8.74c-2,0.75-3.82,1.92-5.33,3.43l-79.88,79.9c-3.35,3.35-4.91,8.08-4.21,12.76l12.24,82.21
		l-11.09,11.75l-33.32-86.33c-1.43-3.68-4.26-6.65-7.87-8.26L78.25,737.4l13.29-11.94l55.37,11.75c4.72,1,9.63-0.34,13.18-3.6
		l91.3-83.7c6.08-5.57,6.48-15.02,0.91-21.09c-1.56-1.7-3.48-3.01-5.63-3.84L37.9,544.31l12.7-18.63l276.18,38.66
		c4.6,0.69,9.25-0.83,12.54-4.12l103.19-101.35l33.04-5.7v26.26L374.47,598.86c-2.8,3.31-4.02,7.66-3.36,11.94l42.32,267.34
		L387.29,896.97z M705.27,789.22c25.36-35.85,47.17-74.09,65.13-114.16c18.3,8.8,36.14,18.54,53.43,29.19
		c-33.04,36.39-73.43,65.36-118.5,84.97H705.27z"/>
	<path d="M770.1,400.75c6.67,13.4,22.93,18.86,36.33,12.19c5.28-2.63,9.56-6.91,12.19-12.19l31.63-63.52
		c35.14-70.81,53.47-148.77,53.56-227.82C903.79,48.95,854.76-0.03,794.31,0C733.9,0.03,684.94,48.99,684.9,109.4
		c0.1,79.04,18.43,157,53.56,227.81L770.1,400.75z M794.36,29.8c43.94,0.04,79.56,35.65,79.6,79.6
		c-0.08,74.44-17.35,147.85-50.44,214.52l-29.16,58.55l-29.2-58.55c-33.1-66.67-50.36-140.09-50.44-214.52
		C714.77,65.44,750.4,29.83,794.36,29.8z"/>
	<path d="M859.82,125.91c0-36.15-29.31-65.46-65.46-65.46c-36.15,0-65.46,29.31-65.46,65.46s29.31,65.46,65.46,65.46c0,0,0,0,0,0
		C830.49,191.32,859.77,162.04,859.82,125.91z M758.76,125.91c0-19.66,15.94-35.6,35.6-35.6c19.66,0,35.6,15.94,35.6,35.6
		s-15.94,35.6-35.6,35.6l0,0C774.71,161.49,758.78,145.56,758.76,125.91z"/>
</g>
</svg>
