<?xml version="1.0" encoding="utf-8"?>
<!-- Generator: Adobe Illustrator 25.0.0, SVG Export Plug-In . SVG Version: 6.00 Build 0)  -->
<svg version="1.1" id="Capa_1" xmlns="http://www.w3.org/2000/svg" xmlns:xlink="http://www.w3.org/1999/xlink" x="0px" y="0px"
	 viewBox="0 0 2830.36 1349.72" style="enable-background:new 0 0 2830.36 1349.72;" xml:space="preserve">
<g>
	<path d="M2807.34,436.64H1720.96c-13.81,0-23.02,9.21-23.02,23.02s9.21,23.02,23.02,23.02h1086.38c13.81,0,23.02-9.21,23.02-23.02
		S2821.15,436.64,2807.34,436.64z"/>
	<path d="M1005.15,146.63c0-13.81-9.21-23.02-23.02-23.02H929.2c-133.5,0-255.48,147.31-363.66,276.2l-23.02,27.62l-2.3,2.3
		c-4.6,6.9-6.9,16.11-2.3,25.32c4.6,9.21,11.51,13.81,20.71,13.81h423.5c13.81,0,23.02-9.21,23.02-23.02
		C1005.15,445.85,1005.15,146.63,1005.15,146.63z M959.12,422.83H609.27c98.97-119.69,211.75-250.88,322.23-250.88h29.92v250.88
		H959.12z"/>
	<path d="M982.13,533.31h-82.86c-13.81,0-23.02,9.21-23.02,23.02s9.21,23.02,23.02,23.02h82.86c13.81,0,23.02-9.21,23.02-23.02
		S995.94,533.31,982.13,533.31z"/>
	<path d="M1792.32,1349.72c-112.49,0-210.26-84.08-227.41-195.56l-2.49-16.19H680.36l-2.49,16.19
		c-17.15,111.49-114.92,195.56-227.41,195.56c-112.49,0-210.26-84.08-227.42-195.56l-2.49-16.19h-90.02
		C59.77,1137.97,0,1075.04,0,1000.54V763.47c0-46.05,21.93-86.31,60.16-110.45l264.83-170.41c25.08-16.71,61.35-59.29,99.76-104.37
		c8.06-9.47,16.13-18.93,24.04-28.1l23.24-27.88C596.07,171.15,736.57,0,931.5,0h1229.08c70.75,0,130.52,62.93,130.52,137.43v223.93
		h516.24c3.27,0,3.93,0.66,3.93,3.93c0,3.27-0.66,3.93-3.93,3.93h-853.91c-3.27,0-3.93-0.66-3.93-3.93c0-3.27,0.66-3.93,3.93-3.93
		h283.78V137.43c0-44.5-35.81-83.54-76.63-83.54H929.2c-168.52,0-301.99,160.17-419.76,301.48l-23.02,27.62l-3.08,3.79
		c-48.74,59.82-94.77,116.33-132.61,139.45L85.67,696.79c-21.02,11.97-34.08,36.23-34.08,64.38v113.46h2185.62V560.25h-253.85
		c-3.27,0-3.93-0.66-3.93-3.93c0-3.27,0.66-3.93,3.93-3.93h563.9c2.63,0,6.23,2.51,6.23,3.93c0,3.27-0.66,3.93-3.93,3.93H2293.4
		v440.29c0,74.49-59.77,137.43-130.52,137.43h-140.67l-2.49,16.19C2002.58,1265.64,1904.81,1349.72,1792.32,1349.72z
		 M1790.02,935.42c-98.1,0-177.91,79.81-177.91,177.9c0,98.09,79.81,177.9,177.91,177.9c98.09,0,177.9-79.81,177.9-177.9
		C1967.92,1015.23,1888.11,935.42,1790.02,935.42z M448.15,935.42c-98.09,0-177.9,79.81-177.9,177.9
		c0,98.09,79.81,177.9,177.9,177.9s177.9-79.81,177.9-177.9C626.05,1015.23,546.24,935.42,448.15,935.42z M1908.62,917.65
		c55.58,35.58,94.46,89.85,106.68,148.9l3.14,15.22h142.14c40.82,0,76.63-39.03,76.63-83.53V882.49h-383.53L1908.62,917.65z
		 M566.75,917.66c55.58,35.56,94.46,89.84,106.68,148.9l3.15,15.22h885.1l3.06-15.35c12.14-60.69,50.11-114.87,104.18-148.67
		l56.45-35.27H511.8L566.75,917.66z M51.59,998.25c0,44.5,35.81,83.53,76.63,83.53h91.6l3.07-15.34
		c12.72-63.59,50.33-116.27,105.91-148.33l61.75-35.62H51.59V998.25z"/>
	<path d="M2812.46,351.83H1967.4c-10.74,0-17.9,7.05-17.9,17.62c0,10.57,7.16,17.62,17.9,17.62h845.05c10.74,0,17.9-7.05,17.9-17.62
		C2830.36,358.88,2823.2,351.83,2812.46,351.83z"/>
	<path d="M2812.46,532.24H1967.4c-10.74,0-17.9,7.05-17.9,17.62c0,10.57,7.16,17.62,17.9,17.62h845.05c10.74,0,17.9-7.05,17.9-17.62
		C2830.36,539.29,2823.2,532.24,2812.46,532.24z"/>
	<path d="M2239.78,854.47H56.4c-27.75,0-46.26,7.05-46.26,17.62s18.5,17.62,46.26,17.62h2183.37c27.75,0,46.26-7.05,46.26-17.62
		S2267.53,854.47,2239.78,854.47z"/>
</g>
</svg>
