<?xml version="1.0" encoding="utf-8"?>
<!-- Generator: Adobe Illustrator 25.0.0, SVG Export Plug-In . SVG Version: 6.00 Build 0)  -->
<svg version="1.1" id="Capa_1" xmlns="http://www.w3.org/2000/svg" xmlns:xlink="http://www.w3.org/1999/xlink" x="0px" y="0px"
	 viewBox="0 0 766.27 782.4" style="enable-background:new 0 0 766.27 782.4;" xml:space="preserve">
<g id="Outline_1_">
	<path d="M523.26,143.35c9.58,6.05,17.68,14.15,23.73,23.73c6.33,10.15,16.96,16.85,28.86,18.16c1.5,0.17,3.02,0.26,4.53,0.26
		c21.82-0.04,39.48-17.76,39.45-39.58c-0.01-4.06-0.64-8.08-1.87-11.95c-9.89-28.95-32.63-51.69-61.58-61.58
		c-20.75-6.67-42.98,4.74-49.65,25.49C501.21,115.03,508.01,133.74,523.26,143.35L523.26,143.35z M534.79,100.45
		c3.55-3.6,8.82-4.89,13.62-3.33c20.99,7.33,37.49,23.83,44.82,44.82c2.24,7.13-1.72,14.73-8.85,16.97
		c-1.81,0.57-3.72,0.75-5.6,0.54c-4.02-0.44-7.62-2.7-9.77-6.13c-8.13-12.91-19.05-23.83-31.96-31.96
		c-3.43-2.14-5.69-5.75-6.13-9.77C530.43,107.46,531.86,103.36,534.79,100.45L534.79,100.45z"/>
	<path d="M471.36,511.23l18.37-18.37l-78.11-78.11l72.94-64.18l-17.16-19.5l-286.13,251.8l-63.27,15.81l-26.34-26.33l15.82-63.27
		L483.49,81.78c32.33-36.74,88.32-40.33,125.07-8s40.33,88.32,8,125.07c-2.49,2.83-5.16,5.5-8,8l-52.61,46.3l17.16,19.5l52.61-46.3
		c47.51-41.81,52.14-114.21,10.34-161.73c-41.81-47.51-114.21-52.14-161.73-10.34c-3.66,3.22-7.11,6.67-10.34,10.34l-98.82,112.3
		L324.93,145l0.3-0.3c20.29-20.29,20.29-53.18,0-73.47c-20.29-20.29-53.18-20.29-73.47,0L242.99,80L149.64,5.96
		c-5.17-4.1-12.59-3.67-17.25,0.99L58.91,80.41c-5.07,5.07-5.07,13.29,0,18.37c0,0,0,0,0,0l82.65,82.66l-27.55,27.55
		c-5.07,5.07-5.07,13.29,0,18.37l55.1,55.1c5.07,5.07,13.29,5.07,18.37,0l27.55-27.55l43.36,43.36l-87.65,99.61l-107.72-35.9
		c-4.67-1.56-9.81-0.34-13.29,3.14L3.8,411.03c-5.07,5.07-5.07,13.29,0,18.37l77.45,77.45l-16.58,66.33
		c-1.11,4.43,0.18,9.11,3.41,12.34l36.74,36.73c3.23,3.23,7.91,4.52,12.34,3.42l66.34-16.58l77.45,77.45
		c5.07,5.07,13.3,5.07,18.37,0c0,0,0,0,0,0l45.92-45.92c3.48-3.48,4.69-8.62,3.14-13.29l-35.9-107.72l99.62-87.67l43.36,43.36
		l-27.55,27.55c-5.07,5.07-5.07,13.3,0,18.37c0,0,0,0,0,0l55.1,55.1l18.37-18.36l-45.92-45.92l18.37-18.37L471.36,511.23z
		 M270.13,89.6c10.14-10.14,26.59-10.14,36.73,0s10.14,26.59,0,36.73l-2.42,2.42l-40.97-32.5L270.13,89.6z M142.56,33.51
		l20.48,16.25l-58.22,58.22L86.45,89.6L142.56,33.51z M178.29,254.91l-36.73-36.74l18.37-18.37l36.73,36.74L178.29,254.91z
		 M123.19,126.33L183.53,66l164.46,130.45l-72.41,82.29L123.19,126.33z M95.03,483.89l-26.95-26.95l49.43-49.43l34.58,11.53
		L95.03,483.89z M62.41,389.15l27.55,9.18l-40.24,40.24l-18.37-18.37L62.41,389.15z M270.13,658.99l-18.37-18.37L292,600.38
		l9.18,27.55L270.13,658.99z M282.82,572.83l-49.43,49.43l-26.95-26.95l64.84-57.06L282.82,572.83z"/>
	<path d="M132.3,539.56l82.64-82.64l18.36,18.36l-82.64,82.64L132.3,539.56z"/>
	<path d="M753.28,288.87H519.5c-7.17,0-12.99,5.81-12.99,12.99v467.55c0,7.17,5.81,12.99,12.99,12.99h233.78
		c7.17,0,12.99-5.81,12.99-12.99V301.86C766.27,294.69,760.45,288.87,753.28,288.87z M610.42,314.85h51.95v51.95h-51.95V314.85z
		 M584.44,314.85v64.94c0,7.17,5.81,12.99,12.99,12.99h77.93c7.17,0,12.99-5.81,12.99-12.99v-64.94h51.95v207.8h-207.8v-207.8
		H584.44z M610.42,548.63h51.95v51.95h-51.95V548.63z M532.49,756.43v-207.8h51.95v64.94c0,7.17,5.81,12.99,12.99,12.99h77.93
		c7.17,0,12.99-5.81,12.99-12.99v-64.94h51.95v207.8H532.49z"/>
	<path d="M688.34,470.7h25.98v25.98h-25.98V470.7z"/>
	<path d="M688.34,704.48h25.98v25.98h-25.98V704.48z"/>
</g>
</svg>
