<?xml version="1.0" encoding="utf-8"?>
<!-- Generator: Adobe Illustrator 25.0.0, SVG Export Plug-In . SVG Version: 6.00 Build 0)  -->
<svg version="1.1" id="Capa_1" xmlns="http://www.w3.org/2000/svg" xmlns:xlink="http://www.w3.org/1999/xlink" x="0px" y="0px"
	 viewBox="0 0 1634.81 926.43" style="enable-background:new 0 0 1634.81 926.43;" xml:space="preserve">
<g id="outline">
	<path d="M1497.09,248.36c-23.97-36.04-64.4-57.68-107.69-57.63h-190.54V27.25c0-15.05-12.2-27.25-27.25-27.25H27.25
		C12.2,0,0,12.2,0,27.25v680.56c0,0.51,0.05,1.02,0.07,1.51c0.16,5.58,2.04,10.97,5.37,15.45l81.74,108.99
		c5.15,6.86,13.22,10.9,21.8,10.9h174.89c30.07,68.94,110.33,100.45,179.27,70.38c31.5-13.74,56.65-38.88,70.38-70.38h731.24
		c30.07,68.94,110.33,100.45,179.27,70.38c31.5-13.74,56.65-38.88,70.38-70.38h93.15c15.05,0,27.25-12.2,27.25-27.25v-261.4
		c0.07-65.9-19.45-130.34-56.06-185.14L1497.09,248.36z M1451.75,278.6l81.67,122.5c7.42,11.13,14.03,22.78,19.79,34.85h-147.58
		l-105.95-190.73h89.74C1414.47,245.2,1437.88,257.73,1451.75,278.6z M1237.33,245.22l128.45,231.21
		c4.81,8.65,13.92,14.01,23.82,14.02h182.92c5.18,21.47,7.81,43.48,7.81,65.56v125.17h-109.08c-48.37-36.33-114.93-36.33-163.3,0
		h-109.08V245.22H1237.33z M1144.37,54.49v626.68H490.35c-48.37-36.33-114.93-36.33-163.3,0H54.49V54.49H1144.37z M122.61,790.16
		l-40.87-54.49h202.14c-7.54,17.18-11.42,35.73-11.41,54.49H122.61z M408.7,871.9c-45.14,0-81.74-36.6-81.74-81.74
		c0-45.14,36.6-81.74,81.74-81.74s81.74,36.6,81.74,81.74C490.39,835.28,453.83,871.85,408.7,871.9z M544.94,790.16
		c0.01-18.76-3.87-37.32-11.41-54.49h731.24c-7.54,17.18-11.42,35.73-11.41,54.49H544.94z M1389.59,871.9
		c-45.14,0-81.74-36.6-81.74-81.74c0-45.14,36.6-81.74,81.74-81.74c45.14,0,81.74,36.6,81.74,81.74
		C1471.28,835.28,1434.71,871.85,1389.59,871.9z M1525.83,790.16c0.01-18.76-3.87-37.32-11.41-54.49h65.9v54.49H1525.83z"/>
	<path d="M326.96,299.72h81.74c15.05,0,27.25-12.2,27.25-27.25s-12.2-27.25-27.25-27.25h-81.74c-15.05,0-27.25,12.2-27.25,27.25
		S311.91,299.72,326.96,299.72z"/>
	<path d="M217.98,408.7H408.7c15.05,0,27.25-12.2,27.25-27.25s-12.2-27.25-27.25-27.25H217.98c-15.05,0-27.25,12.2-27.25,27.25
		S202.93,408.7,217.98,408.7z"/>
	<path d="M408.7,463.2H272.47c-15.05,0-27.25,12.2-27.25,27.25s12.2,27.25,27.25,27.25H408.7c15.05,0,27.25-12.2,27.25-27.25
		S423.75,463.2,408.7,463.2z"/>
	<path d="M1307.85,599.43h81.74c15.05,0,27.25-12.2,27.25-27.25s-12.2-27.25-27.25-27.25h-81.74c-15.05,0-27.25,12.2-27.25,27.25
		S1292.8,599.43,1307.85,599.43z"/>
	<path d="M995.73,195.13c-1.5-0.97-223.25-84.4-223.25-84.4c-6.69-2.52-14.1-2.3-20.63,0.61c0,0-248.44,110.64-249.68,111.49
		c-7.34,5.09-11.73,13.46-11.73,22.39v272.47c0,11.36,7.05,21.52,17.68,25.51l217.98,81.74c6.54,2.48,13.8,2.3,20.21-0.5
		c0.15-0.02,0.29-0.06,0.43-0.11l245.22-108.99c9.84-4.37,16.18-14.13,16.18-24.9V217.98
		C1008.14,208.75,1003.47,200.15,995.73,195.13z M763.8,165.66L909,220.11l-43.32,19.25L818.9,217.2
		c-13.55-6.55-29.84-0.88-36.39,12.67c-6.55,13.55-0.88,29.84,12.67,36.39c0.13,0.06,0.26,0.12,0.39,0.18l4.45,2.11l-65.22,28.99
		l-145.21-54.45L763.8,165.66z M708.42,560.11l-163.48-61.31V284.54l163.48,61.31V560.11z M953.64,472.73L762.91,557.5V344.67
		l81.74-36.33v45.86c0,15.05,12.2,27.25,27.25,27.25s27.25-12.2,27.25-27.25v-70.09l54.49-24.22V472.73z"/>
	<path d="M589.86,406.97l72.66,27.25c14.03,5.43,29.81-1.55,35.24-15.58c5.43-14.03-1.55-29.81-15.58-35.24
		c-0.17-0.07-0.35-0.13-0.52-0.19L609,355.95c-14.02-5.46-29.82,1.49-35.27,15.52c-5.46,14.02,1.49,29.82,15.52,35.27
		C589.45,406.81,589.66,406.89,589.86,406.97z"/>
</g>
</svg>
