<?xml version="1.0" encoding="utf-8"?>
<!-- Generator: Adobe Illustrator 25.0.0, SVG Export Plug-In . SVG Version: 6.00 Build 0)  -->
<svg version="1.1" id="Capa_1" xmlns="http://www.w3.org/2000/svg" xmlns:xlink="http://www.w3.org/1999/xlink" x="0px" y="0px"
	 viewBox="0 0 1618.59 577.38" style="enable-background:new 0 0 1618.59 577.38;" xml:space="preserve">
<style type="text/css">
	.st0{fill-rule:evenodd;clip-rule:evenodd;}
</style>
<g>
	<g>
		<path class="st0" d="M1574.56,205.85c-4.58,4.6-6.86,10.16-6.86,16.67c0,6.56,2.27,12.16,6.82,16.78
			c4.57,4.62,10.13,6.94,16.67,6.94c6.54,0,12.1-2.31,16.67-6.94c4.57-4.62,6.86-10.22,6.86-16.78c0-6.52-2.29-12.08-6.86-16.67
			c-4.6-4.62-10.16-6.94-16.67-6.94C1584.7,198.91,1579.16,201.22,1574.56,205.85z M1610.58,241.95c-5.34,5.37-11.81,8.06-19.4,8.06
			c-7.58,0-14.04-2.69-19.36-8.06c-5.29-5.34-7.94-11.82-7.94-19.43c0-7.54,2.67-13.98,8.01-19.32c5.33-5.32,11.75-7.98,19.28-7.98
			c7.58,0,14.05,2.66,19.4,7.98c5.34,5.32,8.01,11.76,8.01,19.32C1618.59,230.1,1615.92,236.58,1610.58,241.95z M1596.33,212.15
			c-1.32-0.74-3.44-1.11-6.37-1.11h-4.52v10.88h4.78c2.24,0,3.91-0.22,5.03-0.67c2.06-0.82,3.1-2.38,3.1-4.7
			C1598.35,214.36,1597.68,212.9,1596.33,212.15z M1590.67,207.42c3.73,0,6.46,0.36,8.2,1.08c3.1,1.29,4.66,3.83,4.66,7.61
			c0,2.69-0.98,4.66-2.94,5.93c-1.05,0.67-2.5,1.16-4.36,1.45c2.36,0.38,4.08,1.36,5.18,2.95c1.1,1.59,1.64,3.15,1.64,4.66v2.21
			c0,0.69,0.02,1.44,0.07,2.24c0.05,0.79,0.14,1.32,0.26,1.56l0.19,0.38h-4.96c-0.02-0.1-0.05-0.2-0.08-0.3
			c-0.02-0.1-0.04-0.2-0.07-0.33l-0.11-0.96v-2.39c0-3.47-0.95-5.78-2.83-6.9c-1.12-0.65-3.09-0.97-5.89-0.97h-4.18v11.86h-5.29
			v-30.06H1590.67z"/>
		<g>
			<g>
				<path class="st0" d="M1140.02,484.02h-69.56c0,7.22,2.96,13.47,8.87,18.73c5.91,5.26,12.72,7.88,20.42,7.88
					c5.82,0,11.26-1.59,16.33-4.79c5.06-3.19,8.64-7.22,10.7-12.11h11.12c-3.19,8.26-8.21,14.84-15.07,19.71
					c-6.85,4.79-14.5,7.18-22.95,7.18c-10.99,0-20.42-3.95-28.31-11.83c-7.88-7.88-11.83-17.41-11.83-28.58
					c0-11.18,3.9-20.65,11.69-28.45c7.79-7.8,17.32-11.69,28.59-11.69c8.54,0,16.33,2.54,23.37,7.61
					c7.13,5.07,11.92,11.54,14.36,19.44c0.84,2.91,1.41,5.49,1.69,7.75C1139.83,477.02,1140.02,480.07,1140.02,484.02z
					 M1129.46,474.58c-1.88-7.42-5.49-13.33-10.84-17.75c-5.35-4.41-11.59-6.62-18.72-6.62c-7.23,0-13.52,2.21-18.87,6.62
					c-5.35,4.41-8.87,10.33-10.56,17.75H1129.46z"/>
				<polygon class="st0" points="1223.22,518.8 1210.83,518.8 1190.41,488.1 1170.14,518.8 1157.75,518.8 1184.08,479.65 
					1157.75,441.77 1170.14,441.77 1190.41,471.35 1210.83,441.77 1223.22,441.77 1196.75,479.65 				"/>
				<path class="st0" d="M1325.43,480.07c0,11.45-3.99,21.08-11.97,28.86c-7.98,7.79-17.83,11.69-29.56,11.69
					c-12.87,0-22.58-5.3-29.15-15.91v41.11h-10.56V441.77h10v12.96c3-4.51,7.18-8.07,12.53-10.7c5.35-2.63,11.17-3.95,17.46-3.95
					c11.54,0,21.31,3.85,29.29,11.55C1321.45,459.33,1325.43,468.8,1325.43,480.07z M1314.87,480.64c0-8.45-2.91-15.63-8.73-21.54
					c-5.82-5.91-13.01-8.87-21.54-8.87h-1.69c-8.26,0-15.16,2.96-20.7,8.87c-5.44,5.82-8.16,12.96-8.16,21.4
					c0,8.45,2.91,15.58,8.73,21.4c5.82,5.82,13.05,8.72,21.69,8.72c8.45,0,15.63-2.91,21.54-8.72
					C1311.91,496.08,1314.87,488.99,1314.87,480.64z"/>
				<path class="st0" d="M1383.43,450.22c-5.54,0-10.51,2.16-14.93,6.48c-4.41,4.32-6.62,9.11-6.62,14.36v0.85v46.88h-10.56v-77.02
					h10v10.84c4.51-8.35,11.5-12.53,20.98-12.53h1.13V450.22z"/>
				<path class="st0" d="M1481.98,484.02h-69.56c0,7.22,2.95,13.47,8.86,18.73c5.91,5.26,12.72,7.88,20.42,7.88
					c5.82,0,11.27-1.59,16.33-4.79c5.06-3.19,8.64-7.22,10.7-12.11h11.12c-3.19,8.26-8.21,14.84-15.07,19.71
					c-6.85,4.79-14.5,7.18-22.95,7.18c-10.99,0-20.42-3.95-28.3-11.83c-7.89-7.88-11.83-17.41-11.83-28.58
					c0-11.18,3.9-20.65,11.68-28.45c7.79-7.8,17.32-11.69,28.59-11.69c8.54,0,16.33,2.54,23.37,7.61
					c7.13,5.07,11.92,11.54,14.36,19.44c0.85,2.91,1.41,5.49,1.69,7.75C1481.79,477.02,1481.98,480.07,1481.98,484.02z
					 M1471.42,474.58c-1.88-7.42-5.49-13.33-10.84-17.75c-5.35-4.41-11.59-6.62-18.72-6.62c-7.23,0-13.52,2.21-18.87,6.62
					c-5.35,4.41-8.86,10.33-10.56,17.75H1471.42z"/>
				<path class="st0" d="M1549.55,495.99c0,7.04-2.3,12.91-6.9,17.6c-4.6,4.7-10.47,7.04-17.6,7.04c-6.94,0-12.67-2.3-17.18-6.9
					c-4.5-4.6-6.76-10.51-6.76-17.74h10.56c0,4.41,1.27,7.97,3.8,10.7c2.63,2.63,6.05,3.94,10.28,3.94c3.66,0,6.76-1.22,9.3-3.66
					c2.63-2.53,3.94-5.63,3.94-9.29c0-6.29-4.08-10.84-12.25-13.66l-8.45-2.82c-4.51-1.59-8.03-4.13-10.56-7.61
					c-2.53-3.47-3.8-7.51-3.8-12.11c0-5.91,2.11-10.94,6.33-15.07c4.32-4.22,9.53-6.34,15.63-6.34c5.92,0,10.99,2.07,15.21,6.19
					c4.31,4.04,6.48,8.83,6.48,14.37l-10.56,0.28c-0.28-3.28-1.45-5.91-3.52-7.88c-2.07-1.97-4.69-2.96-7.88-2.96
					c-3.1,0-5.73,1.04-7.88,3.1c-2.16,2.07-3.24,4.65-3.24,7.74c0,5.45,3.62,9.39,10.84,11.83c5.64,1.88,9.44,3.28,11.41,4.22
					c2.06,0.94,4.04,2.16,5.91,3.66C1547.26,484.29,1549.55,489.41,1549.55,495.99z"/>
				<path class="st0" d="M1615.29,495.99c0,7.04-2.3,12.91-6.9,17.6c-4.6,4.7-10.47,7.04-17.6,7.04c-6.94,0-12.67-2.3-17.18-6.9
					c-4.5-4.6-6.76-10.51-6.76-17.74h10.56c0,4.41,1.27,7.97,3.8,10.7c2.63,2.63,6.05,3.94,10.28,3.94c3.66,0,6.76-1.22,9.3-3.66
					c2.63-2.53,3.94-5.63,3.94-9.29c0-6.29-4.08-10.84-12.25-13.66l-8.45-2.82c-4.51-1.59-8.03-4.13-10.56-7.61
					c-2.53-3.47-3.8-7.51-3.8-12.11c0-5.91,2.11-10.94,6.33-15.07c4.32-4.22,9.53-6.34,15.63-6.34c5.92,0,10.99,2.07,15.21,6.19
					c4.31,4.04,6.48,8.83,6.48,14.37l-10.56,0.28c-0.28-3.28-1.45-5.91-3.52-7.88c-2.07-1.97-4.69-2.96-7.88-2.96
					c-3.1,0-5.73,1.04-7.89,3.1c-2.16,2.07-3.24,4.65-3.24,7.74c0,5.45,3.62,9.39,10.84,11.83c5.64,1.88,9.44,3.28,11.41,4.22
					c2.06,0.94,4.03,2.16,5.91,3.66C1612.99,484.29,1615.29,489.41,1615.29,495.99z"/>
			</g>
			<line class="st0" x1="481.64" y1="479.24" x2="1027.7" y2="479.24"/>
			<g>
				<g>
					<g>
						<path class="st0" d="M1024.94,296.21c1.98-4.43,2.97-8.16,2.97-11.19c0-2.68-0.03-5.55-1.79-7.3
							c-1.63-1.76-2.14-3.18-4.93-2.73c-5.42,0.88-11.96,4.13-23.03,12.64c-10.96,8.4-22.2,19.42-33.76,33.05
							c-8.62,10.27-16.43,21.23-23.44,32.88c-7.11,11.54-13.52,24.26-19.23,38.13l-27.94,0.29l72.23-122.08l28.81-0.11l-40.11,56.89
							l-0.2-0.11c15.28-20.16,23.36-30.77,38.63-42.43c15.39-11.66,24.26-16.22,30.2-16.22c7.11,0,12.65,1.98,16.61,5.95
							c3.96,3.96,5.95,9.5,5.95,16.62c0,4.31-1.17,9.26-3.5,14.86c-2.22,5.48-5.54,11.37-9.97,17.66
							C1032.44,323.01,1005.21,330.83,1024.94,296.21z"/>
						<path class="st0" d="M1165.86,325.39l1.4,1.58c-26.12,33.7-21.09,28.23-38.5,46.85c-15.11,16.16-32.2,22.66-43.16,22.67
							c-6.76,0-14.25-1.25-18.7-5.37c-6.46-5.25-7.88-12.48-7.88-20.41c0-5.02,0.99-10.26,2.97-15.74
							c1.98-5.47,4.79-10.72,8.4-15.73l21.86-29.74c3.38-4.43,6-8.86,7.87-13.29c1.98-4.43,2.97-8.16,2.97-11.19
							c0-2.68-0.03-5.55-1.79-7.3c-1.63-1.76-2.14-3.18-4.93-2.73c-5.42,0.88-11.96,4.13-23.03,12.64
							c-10.96,8.4-22.21,19.42-33.76,33.05c-8.63,10.27-16.44,21.23-23.43,32.88c-7.12,11.54-13.53,24.26-19.24,38.13l-27.93,0.29
							l64.15-108.56l-2.31,38.2l1.99,0.77c15.28-20.17,20.26-26.6,35.53-38.26c15.39-11.66,24.26-16.22,30.19-16.22
							c7.11,0,12.65,1.98,16.61,5.95c3.97,3.96,5.95,9.5,5.95,16.62c0,4.31-1.17,9.26-3.5,14.86c-2.22,5.48-5.54,11.37-9.97,17.66
							l-20.46,29.03c-3.96,5.48-6.79,8.68-9,13.57c-6.46,19.7,9.87,22.35,13.41,22.38c7.95,0.08,22.21-7.81,38.19-23.44
							C1145.73,348.82,1143.59,353.96,1165.86,325.39z"/>
					</g>
					<path class="st0" d="M1513.98,357.53c-1.86,1.17-3.26,2.8-4.19,4.9c-0.93,2.1-1.4,4.72-1.4,7.87c0,6.99,4.81,12.37,9.47,16.67
						c4.67,4.2,10.87,6.59,18.68,6.59c9.33,0,20.61-5.46,27.26-11.52c15.56-9.6,3.35-29.02-7.57-46.44
						c-4.8-7.64-13.08-22.38-13.08-30.2c0-10.37,1.06-21.6,14.89-31.56c10.85-6.88,33.59-14.06,48.87-0.21
						c5.91,6.39,9.99,11.95,9.99,19.88c0,6.18-0.69,13.38-7.2,17.1c-5.66,3.23-13.6-2.2-15.7-3.25
						c10.51-5.42,13.84-25.23,3.98-33.31c-3.38-3.73-11.4-3.87-16.42-3.69c-5.4,0.2-20.78,9.82-19.11,23.62
						c0,4.09,0.81,6.68,2.44,10.76c1.52,4.08,24.47,45.16,26.13,53.27c3.91,19.08-13.24,41.42-46.1,39.23
						c-15.7-1.05-22.56-3.27-31.31-9.79c-8.74-6.65-13.12-15.79-13.12-27.46c0-8.4,2.45-15.39,7.35-20.99
						c4.89-5.6,5.57-8.04,12.68-8.04c4.78,0,7.89,0.87,10.41,4.44C1539.46,353.51,1514.45,357.65,1513.98,357.53z"/>
					<path class="st0" d="M507.4,336.53c20.41-5.36,31.45-10.44,44.61-21.63c13.18-11.32,19.76-22.39,19.77-33.23
						c0-3.15-0.81-4.81-2.43-6.45c-1.63-1.62-4.03-2.44-7.17-2.45c-9.44,0-17.41,5.11-29.89,18.28
						C519.69,304.23,513.23,317.76,507.4,336.53z M647.88,301.56c-21.93,30.43-41.05,53.95-64.6,70.5
						c-23.55,16.56-35.86,24.32-57.08,24.33c-11.77,0-25.12-3.69-32.82-11.04c-7.81-7.46-11.72-16.85-11.72-28.16
						c0-11.54,3.27-23.14,9.8-34.8c6.42-11.77,14.35-24.24,24.88-34.39c9.68-7.7,37.34-31.9,61.34-19.13
						c6,3.19,9.62,9.56,9.98,15.96c2.04,36.63-46.94,49.23-80.86,57.04c-0.12,0.7-0.03-0.15-0.15,1.14
						c-0.46,3.03-0.69,5.37-0.69,6.99c0,10.84,2.79,19.3,8.39,25.36c5.48,6.07,13.18,9.09,23.09,9.09
						c14.69,0,29.88-6.94,49.59-21.86c19.7-14.92,39.4-35.62,59.11-62.09L647.88,301.56z"/>
					<path class="st0" d="M798.69,297.89l1.4,1.58c-26.12,33.7-44.18,54.45-61.57,73.07c-15.12,16.17-32.2,22.66-43.17,22.67
						c-6.76,0-14.25-1.25-18.69-5.37c-6.47-5.26-7.88-12.48-7.88-20.41c0-5.02,1-10.26,2.97-15.74c1.99-5.47,4.78-10.72,8.4-15.74
						L702,308.21c3.37-4.43,6-8.86,7.87-13.29c1.98-4.43,2.96-8.16,2.97-11.19c0-2.68-0.04-5.55-1.79-7.3
						c-1.63-1.75-2.15-3.17-4.94-2.72c-5.41,0.88-11.95,4.13-23.03,12.64c-10.96,8.4-22.21,19.42-33.75,33.06
						c-8.63,10.26-16.44,21.22-23.44,32.88c-7.11,11.54-13.52,24.26-19.24,38.13l-27.93,0.29l72.23-122.08l28.81-0.12l-40.1,56.89
						l-0.2-0.11c15.28-20.16,23.36-30.77,38.63-42.42c15.39-11.66,24.26-16.23,30.19-16.23c7.12,0,12.65,1.99,16.62,5.95
						c3.96,3.97,5.94,9.5,5.95,16.62c0,4.31-1.17,9.26-3.5,14.86c-2.22,5.48-5.55,11.37-9.97,17.66l-20.47,29.04
						c-3.97,5.48-6.8,8.68-9.01,13.57c-6.46,19.7,9.88,22.35,13.42,22.39c7.94,0.08,22.21-7.81,38.18-23.44
						C755.48,347.53,776.42,326.46,798.69,297.89z"/>
					<path class="st0" d="M880.66,300.86c-22.39,31.37-43.06,54.7-61.91,70.99c-20.15,17.41-31.09,22.7-40.69,23.84
						c-8.28,0.7-17.96,0.42-23.51-5.74c-4.48-5.68-6.39-9.88-6.4-17.24c0-4.77,1.28-10.55,3.85-17.31
						c2.57-6.88,6.3-14.57,11.19-23.09l35.97-63.84h-34.92l7.07-10.34h33.46l24.98-41.34l28.15-0.08l-25.36,41.45h44.44l-7.43,10.34
						h-43.19l-41.4,71c-5.01,8.64-8.91,16.56-11.72,23.79c-2.92,7.12-4.37,12.65-4.37,16.62c0,3.27,0.82,5.71,2.45,7.35
						c1.25,1.19,2.91,1.77,5.94,1.81c12.92,0.18,25.12-8.59,43.43-24.8c18.19-16.31,37.19-38.29,57.01-65.93L880.66,300.86z"/>
					<g>
						<path class="st0" d="M1167.64,336.53c20.4-5.36,31.45-10.44,44.61-21.63c13.18-11.32,19.75-22.39,19.76-33.23
							c0-3.15-0.8-4.81-2.43-6.45c-1.63-1.62-4.02-2.44-7.16-2.45c-9.44,0-17.42,5.11-29.89,18.28
							C1179.93,304.23,1173.46,317.76,1167.64,336.53z M1308.11,301.56c-21.92,30.43-41.04,53.95-64.6,70.5
							c-23.55,16.56-35.86,24.32-57.08,24.33c-11.77,0-25.11-3.69-32.82-11.04c-7.81-7.46-11.71-16.85-11.72-28.16
							c0-11.54,3.27-23.14,9.8-34.8c6.41-11.77,14.35-24.24,24.88-34.39c9.68-7.7,37.33-31.9,61.34-19.13
							c6,3.19,9.62,9.56,9.98,15.96c2.04,36.63-46.94,49.23-80.87,57.04c-0.11,0.7-0.02-0.15-0.14,1.14
							c-0.47,3.03-0.69,5.37-0.7,6.99c0,10.84,2.8,19.3,8.4,25.36c5.48,6.07,13.18,9.09,23.09,9.09c14.69,0,29.88-6.94,49.58-21.86
							c19.71-14.92,39.41-35.62,59.12-62.09L1308.11,301.56z"/>
						<path class="st0" d="M1458.93,297.89l1.4,1.58c-26.12,33.7-44.18,54.45-61.58,73.07c-15.11,16.17-32.2,22.66-43.16,22.67
							c-6.76,0-14.25-1.25-18.69-5.37c-6.47-5.26-7.88-12.48-7.88-20.41c0-5.02,1-10.26,2.97-15.74c1.98-5.47,4.78-10.72,8.39-15.74
							l21.86-29.74c3.38-4.43,6.01-8.86,7.88-13.29c1.98-4.43,2.96-8.16,2.97-11.19c0-2.68-0.04-5.55-1.79-7.3
							c-1.63-1.75-2.15-3.17-4.94-2.72c-5.41,0.88-11.96,4.13-23.03,12.64c-10.96,8.4-22.2,19.42-33.76,33.06
							c-8.62,10.26-16.43,21.22-23.43,32.88c-7.11,11.54-13.52,24.26-19.24,38.13l-27.93,0.29l72.23-122.08l28.81-0.12l-40.11,56.89
							l-0.2-0.11c15.28-20.16,23.36-30.77,38.63-42.42c15.39-11.66,24.26-16.23,30.2-16.23c7.11,0,12.65,1.99,16.62,5.95
							c3.96,3.97,5.94,9.5,5.95,16.62c0,4.31-1.18,9.26-3.51,14.86c-2.21,5.48-5.54,11.37-9.97,17.66l-20.46,29.04
							c-3.96,5.48-6.79,8.68-9,13.57c-6.46,19.7,9.87,22.35,13.42,22.39c7.95,0.08,22.21-7.81,38.18-23.44
							C1415.72,347.53,1436.66,326.46,1458.93,297.89z"/>
						<path class="st0" d="M1540.9,300.86c-22.39,31.37-43.06,54.7-61.91,70.99c-20.15,17.41-31.09,22.7-40.69,23.84
							c-8.28,0.7-17.96,0.42-23.51-5.74c-4.47-5.68-6.39-9.88-6.39-17.24c0-4.77,1.28-10.55,3.85-17.31
							c2.56-6.88,6.29-14.57,11.19-23.09l35.96-63.84h-34.91l7.07-10.34h33.46L1490,216.8l28.16-0.08l-25.37,41.45h44.45
							l-7.43,10.34h-43.2l-41.39,71c-5.02,8.64-8.91,16.56-11.72,23.79c-2.92,7.12-4.37,12.65-4.37,16.62
							c0,3.27,0.82,5.71,2.44,7.35c1.26,1.19,2.92,1.77,5.94,1.81c12.92,0.18,25.13-8.59,43.43-24.8
							c18.19-16.31,37.2-38.29,57.02-65.93L1540.9,300.86z"/>
					</g>
					<path class="st0" d="M964,300.86c-22.39,31.37-43.06,54.7-61.92,70.99c-20.15,17.41-31.08,22.7-40.68,23.84
						c-8.28,0.7-17.96,0.42-23.51-5.74c-4.47-5.68-6.39-9.88-6.39-17.24c0-4.77,1.28-10.55,3.85-17.31
						c2.56-6.88,6.3-14.57,11.19-23.09l41.12-74.05l27.21,0.03l-46.53,81.21c-5.01,8.64-8.91,16.56-11.72,23.79
						c-2.92,7.12-4.37,12.65-4.37,16.62c0,3.27,0.82,5.71,2.44,7.35c1.26,1.19,2.92,1.77,5.94,1.81
						c12.92,0.18,25.13-8.59,43.43-24.8c18.19-16.31,37.2-38.29,57.02-65.93L964,300.86z"/>
					<g>
						<path class="st0" d="M199.68,178.71c-7.1,95.35,139.49,152.16,293.45,93.63C657.42,209.9,710.33,77.59,710.33,77.59
							s36.39-69.84-25.46-61.04c-37.07,5.28-156.82,52.31-226.05,246.83c-3.15,8.87-57.06,164.63-159.14,247.17
							c-30.86,25.72-69.3,42.98-110.96,47.59C83.71,569.77,8.51,508.94,12.03,408.9c3.34-94.72,77.7-177.94,172.01-195.89
							l17.93-2.34c125.87-10.46,134.39,112.72,134.39,112.72c0,78.19-65.84,141.36-147.06,141.36h-0.76c0,0-79.94,2.89-78.8-73.86
							c1.14-76.76,85.63-90.75,105.64-88.56c20.89,2.29,39.12,9.48,44.45,23.94c0,0-5.53,6.04,0.03,11.47
							c5.56,5.43,19.45-0.75,11.11-13.76c-8.33-13.02-34.98-27.49-62.69-26.57c-16.93,0.37-111,12.73-107.68,97.19
							c3.33,84.46,98.39,80.62,98.39,80.62h0.76c81.22,0,147.06-63.17,147.06-141.11c0-77.93-52.31-148.41-147.33-141.11
							l-17.99,2.52C86.63,211.97,13.61,298.34,6.05,392.8c-9.76,121.96,77.66,195,182.68,183.37c19.53-2.16,38.31-7.16,55.92-14.5
							c147.02-53.58,227.68-256.49,231.63-266.89c87.91-231.91,172.7-260.34,208.83-270.1c39.79-10.74,21.72,33.97,21.72,33.97
							s-49.42,131.36-213.69,193.81c-156.06,59.32-300.02,19.81-280.6-73.45C212.54,179,199.71,178.78,199.68,178.71z"/>
						<path class="st0" d="M201.11,210.72l3.86-0.26l7.96-0.42c0,0-0.34-8.63-0.25-9.22c0.1-0.59-0.73-8.18-0.73-8.18
							c-4.31-0.55-8.01,0.03-12.34,0.24C199.67,192.6,201.11,210.72,201.11,210.72z"/>
						<path class="st0" d="M328.88,292.45l6.83,5.65l6.4-3.63c0,0-1.03-6.15-0.93-6.74c0.1-0.59-4.38-8.5-4.38-8.5l-11.36,0.79
							L328.88,292.45z"/>
						<path class="st0" d="M447.11,286.22l16.29,0.34l19.98-10.92c0,0,9.55-22.42,9.65-23.01c0.1-0.59-27.74,9.14-27.74,9.14
							l-10.16,3.47L447.11,286.22z"/>
					</g>
				</g>
			</g>
		</g>
		<g>
			<path class="st0" d="M148.38,19.04h59.02c0,0,4.61-0.79,10.97,11.51l30.21,53.59c0,0,3.88,6.96,9.36,7.51h15.92l-18.96,25.29
				l-10.38,0.01c0,0-8.42,0.09-14.91-12.83l-30.53-55.06c0,0-2.12-4.71-8.62-4.42h-61.24L148.38,19.04z"/>
			<path class="st0" d="M163.29,49.36h30.26l35.75,63.34c0,0,3.08,7.28,11.53,8.94h10.55l-17.17,22.96h-11.06
				c0,0-7.2,0.32-11.96-8.99L163.29,49.36z"/>
			<path class="st0" d="M129.22,49.21h29.17l52.21,93.75c0,0,2.35,5.38,8.16,5.92h12.22l-18.31,24.49H202.3c0,0-4.89,0-9.19-8.41
				L129.22,49.21z"/>
			<path class="st0" d="M440.84,91.65h-63.58c0,0-7.15-0.33-12.33,6.6l-49.66,66.41c0,0-7.48,8.72,5.84,8.72h58.67l18.84-25.05
				l-27.01-0.01c0,0-5.65,0.58-2.1-4.17l18.95-25.44c0,0,1.67-1.77,7.43-1.77h26.09L440.84,91.65z"/>
			<path class="st0" d="M468.68,117.06l1.49-2.05l-7.74,0.01c0,0-1.22-0.26-2.93,2.09c0,0-3.15,4.04,0.01,4.04h25.76
				c0,0,7.85-0.29,3.41,5.63l-30.86,41.27c0,0-3.06,5.54-12.57,5.54h-48.15c0,0-9.26-0.77-5.66-6.25l14.21-19.02h30.33l-2.12,3.14
				H442c0,0,0.76,0.21,2.46-2.16c0,0,4.3-5.09,1.38-5.22h-28.78c0,0-6.63-1.1-3.68-6.6l31.89-42.07c0,0,2.21-3.87,7.39-3.87h52.36
				c0,0,10.15-0.24,4.84,6.97l-13.91,18.54L468.68,117.06z"/>
			<polygon class="st0" points="280.84,91.65 261.87,116.95 285.11,116.95 242.95,173.32 278.64,173.32 320.79,116.95 
				344.12,116.95 363.04,91.66 			"/>
		</g>
	</g>
</g>
</svg>
