<?xml version="1.0" encoding="utf-8"?>
<!-- Generator: Adobe Illustrator 25.0.0, SVG Export Plug-In . SVG Version: 6.00 Build 0)  -->
<svg version="1.1" id="Layer_1" xmlns="http://www.w3.org/2000/svg" xmlns:xlink="http://www.w3.org/1999/xlink" x="0px" y="0px"
	 viewBox="0 0 512 512" style="enable-background:new 0 0 512 512;" xml:space="preserve">
<g id="_06-cart">
	<g id="linear_color-2">
		<path d="M480,6H32C17.65,6.02,6.02,17.65,6,32v352c0.02,14.35,11.65,25.98,26,26h176.67l-6.81,54.43
			c-16.62,5.97-32.52,13.77-47.41,23.25c-4.6,3.06-5.84,9.27-2.77,13.87c1.85,2.78,4.98,4.45,8.32,4.45h192c5.52,0,10-4.48,10-10
			c0-3.34-1.67-6.46-4.45-8.32c-14.89-9.48-30.8-17.28-47.41-23.25L303.33,410H480c14.35-0.02,25.98-11.65,26-26V32
			C505.98,17.65,494.35,6.02,480,6z M32,26h448c3.31,0,6,2.69,6,6v278H26V32C26,28.69,28.69,26,32,26z M208,486h-6.53
			c15.89-6.39,35.31-12,54.53-12c19.15,0,38.56,5.61,54.46,12H208z M289.2,458.16c-21.78-5.55-44.61-5.55-66.39,0l6.02-48.16h54.35
			L289.2,458.16z M486,384c0,3.31-2.69,6-6,6H32c-3.31,0-6-2.69-6-6v-54h460V384z"/>
		<path d="M240,370h32c5.52,0,10-4.48,10-10s-4.48-10-10-10h-32c-5.52,0-10,4.48-10,10S234.48,370,240,370z"/>
		<path d="M104,74h24.79l45.72,137.16c0.34,1.02,0.84,1.98,1.49,2.84l0,0c-14.38-0.02-26.05,11.62-26.07,26
			c-0.02,14.38,11.62,26.05,26,26.07c14.38,0.02,26.05-11.62,26.07-26c0.01-8.96-4.58-17.3-12.17-22.07h83.46
			c-0.19,1.98-0.29,3.98-0.29,6c0,34.79,28.21,63,63,63s63-28.21,63-63s-28.21-63-63-63c-1.99,0-3.95,0.1-5.89,0.28l15.38-46.12
			c1.75-5.24-1.08-10.9-6.32-12.65c-1.02-0.34-2.09-0.51-3.16-0.51H208c-5.52,0-10,4.48-10,10s4.48,10,10,10h114.12l-9.35,28.04
			c-0.26-0.02-0.52-0.04-0.78-0.04h-88c-5.52,0-10,4.48-10,10s4.48,10,10,10h79.59c-10.95,6.6-19.65,16.36-24.95,28h-87.43
			L145.49,60.84C144.13,56.75,140.3,54,136,54h-32c-5.52,0-10,4.48-10,10S98.48,74,104,74z M176,246c-3.31,0-6-2.69-6-6s2.69-6,6-6
			s6,2.69,6,6C182,243.31,179.31,246,176,246z M379,224c0,23.75-19.25,43-43,43s-43-19.25-43-43s19.25-43,43-43
			C359.74,181.03,378.97,200.26,379,224z"/>
		<path d="M315.53,232.94l16,8c4.51,2.25,10,0.8,12.79-3.4l16-24c3.02-4.62,1.72-10.82-2.9-13.84c-4.56-2.98-10.68-1.76-13.74,2.75
			l-11.1,16.65l-8.1-4.05c-4.96-2.43-10.95-0.38-13.38,4.58C308.69,224.53,310.67,230.46,315.53,232.94L315.53,232.94z"/>
	</g>
</g>
</svg>
