<?xml version="1.0" encoding="utf-8"?>
<!-- Generator: Adobe Illustrator 25.0.0, SVG Export Plug-In . SVG Version: 6.00 Build 0)  -->
<svg version="1.1" id="Layer_1" xmlns="http://www.w3.org/2000/svg" xmlns:xlink="http://www.w3.org/1999/xlink" x="0px" y="0px"
	 viewBox="0 0 10 8.45" style="enable-background:new 0 0 10 8.45;" xml:space="preserve">
<g>
	<path d="M9.57,5.72c-0.09,0-0.14-0.11-0.07-0.18c0.08-0.08,0.13-0.19,0.13-0.31c0-0.12-0.05-0.22-0.13-0.31L9.25,4.68
		c-0.17-0.17-0.44-0.17-0.61,0C8.57,4.75,8.46,4.7,8.46,4.61c0-0.24-0.19-0.43-0.43-0.43H8.02c0-1.66,0-2.05,0-3.68
		C8.02,0.22,7.8,0,7.53,0H0.49C0.22,0,0,0.22,0,0.49c0,1.05,0,4.3,0,5.5c0,0.27,0.22,0.49,0.49,0.49h5.22v0.01
		c0,0.24,0.19,0.43,0.43,0.43c0.09,0,0.14,0.11,0.07,0.18c-0.17,0.17-0.17,0.44,0,0.61l0.24,0.24c0.17,0.17,0.44,0.17,0.61,0
		c0.07-0.07,0.18-0.02,0.18,0.07c0,0.24,0.19,0.43,0.43,0.43h0.34c0.24,0,0.43-0.19,0.43-0.43c0-0.09,0.11-0.14,0.18-0.07
		c0.17,0.17,0.44,0.17,0.61,0l0.24-0.24c0.17-0.17,0.17-0.44,0-0.61C9.43,7.04,9.47,6.93,9.57,6.93C9.81,6.93,10,6.73,10,6.49V6.15
		C10,5.91,9.81,5.72,9.57,5.72z M0.33,0.49c0-0.09,0.07-0.16,0.16-0.16h7.03c0.09,0,0.16,0.07,0.16,0.16v0.23L4.12,3.71
		c-0.06,0.05-0.15,0.05-0.21,0L0.33,0.73V0.49z M0.49,6.16c-0.09,0-0.16-0.07-0.16-0.16V1.16l3.36,2.81c0.18,0.15,0.45,0.15,0.63,0
		l3.36-2.81v3.02H7.69c-0.24,0-0.43,0.19-0.43,0.43c0,0.09-0.11,0.14-0.18,0.07c-0.17-0.17-0.44-0.17-0.61,0L6.22,4.93
		c-0.17,0.17-0.17,0.44,0,0.61c0.07,0.07,0.02,0.18-0.07,0.18c-0.24,0-0.43,0.19-0.43,0.43v0.01H0.49z M9.67,6.49
		c0,0.06-0.05,0.1-0.1,0.1c-0.39,0-0.58,0.47-0.31,0.74c0.04,0.04,0.04,0.11,0,0.15L9.02,7.73c-0.04,0.04-0.11,0.04-0.15,0
		C8.6,7.45,8.13,7.65,8.13,8.03c0,0.06-0.05,0.1-0.1,0.1H7.69c-0.06,0-0.1-0.05-0.1-0.1c0-0.39-0.47-0.58-0.74-0.31
		c-0.04,0.04-0.11,0.04-0.15,0L6.45,7.48c-0.04-0.04-0.04-0.11,0-0.15C6.73,7.06,6.53,6.6,6.15,6.6c-0.06,0-0.1-0.05-0.1-0.1V6.15
		c0-0.06,0.05-0.1,0.1-0.1c0.39,0,0.58-0.47,0.31-0.74c-0.04-0.04-0.04-0.11,0-0.15L6.7,4.92c0.04-0.04,0.11-0.04,0.15,0
		C7.12,5.19,7.58,5,7.58,4.61c0-0.06,0.05-0.1,0.1-0.1h0.34c0.06,0,0.1,0.05,0.1,0.1C8.13,5,8.6,5.19,8.87,4.92
		c0.04-0.04,0.11-0.04,0.15,0l0.24,0.24c0.02,0.02,0.03,0.05,0.03,0.07c0,0.03-0.01,0.05-0.03,0.07C8.99,5.58,9.18,6.05,9.57,6.05
		c0.06,0,0.1,0.05,0.1,0.1V6.49z"/>
	<path d="M7.86,5.28c-0.58,0-1.04,0.47-1.04,1.04c0,0.58,0.47,1.04,1.04,1.04S8.9,6.9,8.9,6.32C8.9,5.75,8.43,5.28,7.86,5.28z
		 M7.86,7.04c-0.39,0-0.71-0.32-0.71-0.71c0-0.39,0.32-0.71,0.71-0.71c0.39,0,0.71,0.32,0.71,0.71C8.57,6.72,8.25,7.04,7.86,7.04z"
		/>
</g>
</svg>
