<?xml version="1.0" encoding="utf-8"?>
<!-- Generator: Adobe Illustrator 25.0.0, SVG Export Plug-In . SVG Version: 6.00 Build 0)  -->
<svg version="1.1" id="Capa_1" xmlns="http://www.w3.org/2000/svg" xmlns:xlink="http://www.w3.org/1999/xlink" x="0px" y="0px"
	 viewBox="0 0 512 463.1" style="enable-background:new 0 0 512 463.1;" xml:space="preserve">
<g>
	<g>
		<path d="M512,63.35c0-0.06-0.01-0.11-0.01-0.17c-0.01-0.22-0.02-0.44-0.05-0.66c-0.01-0.08-0.02-0.16-0.04-0.24
			c-0.03-0.2-0.07-0.4-0.11-0.59c-0.02-0.08-0.04-0.15-0.06-0.23c-0.06-0.21-0.12-0.42-0.2-0.62c-0.01-0.04-0.02-0.08-0.04-0.12
			L491.15,8.64C489.1,3.39,484.14,0,478.5,0h-37.04c-4.04,0-7.31,3.27-7.31,7.31s3.27,7.31,7.31,7.31h36.34l16.19,41.45H340.91
			l-9.59-41.45h56.53c4.04,0,7.31-3.27,7.31-7.31S391.89,0,387.85,0h-65.73h-73.67H92.08c-5.64,0-10.6,3.39-12.65,8.64L59.08,60.72
			c-0.01,0.04-0.02,0.08-0.04,0.12c-0.08,0.2-0.14,0.41-0.2,0.62c-0.02,0.08-0.04,0.15-0.06,0.23c-0.05,0.19-0.08,0.39-0.11,0.59
			c-0.01,0.08-0.03,0.16-0.04,0.24c-0.03,0.22-0.04,0.44-0.04,0.66c0,0.06-0.01,0.11-0.01,0.17c0,0.01,0,0.02,0,0.03v107.41
			c0,4.04,3.27,7.31,7.31,7.31s7.31-3.27,7.31-7.31V70.69h154.97v111.13c0,4.35,2.56,8.31,6.52,10.09c1.45,0.65,3,0.97,4.53,0.97
			c2.66,0,5.28-0.95,7.34-2.78l38.72-34.3l38.72,34.3c3.25,2.88,7.91,3.59,11.88,1.81c3.96-1.78,6.52-5.74,6.52-10.09V70.69h154.97
			v327.92c0,5.25-4.27,9.52-9.52,9.52H353.81c0-0.08-0.01-0.17-0.01-0.25c-0.01-0.66-0.03-1.31-0.09-1.96
			c12.59,3.34,26.04-3.13,31.08-15.5c2.65-6.51,2.61-13.66-0.11-20.13c-0.26-0.61-0.54-1.2-0.84-1.79
			c-0.05-0.11-0.11-0.21-0.16-0.32c-0.29-0.56-0.61-1.1-0.93-1.63c-0.06-0.1-0.13-0.2-0.2-0.3c-0.35-0.54-0.71-1.08-1.09-1.59
			c-0.01-0.01-0.02-0.02-0.02-0.03c-0.38-0.51-0.79-0.99-1.2-1.47c-0.08-0.09-0.15-0.17-0.23-0.26c-0.41-0.46-0.84-0.9-1.29-1.33
			c-0.09-0.08-0.17-0.17-0.26-0.25c-0.46-0.44-0.94-0.86-1.44-1.26c-0.02-0.01-0.03-0.03-0.05-0.04c-0.49-0.39-0.99-0.77-1.51-1.12
			c-0.09-0.07-0.18-0.13-0.28-0.2c-0.52-0.35-1.05-0.68-1.59-0.99c-0.05-0.03-0.09-0.06-0.13-0.08c3.09-2.67,5.53-6.06,7.12-9.95
			c2.65-6.51,2.61-13.66-0.11-20.13c-2.38-5.67-6.58-10.23-11.94-13.05c-0.77-0.4-1.56-0.77-2.37-1.1l-113.79-46.4l52.97-16.39
			c12.6-3.9,19.7-17.34,15.82-29.96c-1.45-4.71-4.32-8.68-8.02-11.59c-5.52-4.32-12.89-6.27-20.2-4.74
			c-0.04,0.01-0.07,0.01-0.1,0.02c-0.4,0.09-41.01,9.22-83.42,17.49c-1.88,0.37-3.71,0.72-5.52,1.07c-1.45,0.28-2.87,0.55-4.27,0.82
			c-0.4,0.08-0.8,0.15-1.2,0.23c-2.47,0.47-4.86,0.92-7.19,1.35c-0.94,0.17-1.86,0.35-2.78,0.51c-53.26,9.81-68.22,9.99-72.37,9.43
			c-0.02,0-0.03,0-0.05-0.01c-0.06-0.01-0.12-0.02-0.18-0.03c-0.04-0.01-0.08-0.01-0.12-0.02c-0.03-0.01-0.06-0.01-0.08-0.01
			c-0.26-0.05-0.46-0.1-0.62-0.14l-1.2-0.49l1.49-3.66c1.47-3.6,1.45-7.56-0.06-11.14c-0.38-0.9-0.84-1.74-1.37-2.53
			c-1.6-2.36-3.85-4.2-6.55-5.3l-39.27-16.01c-3.6-1.47-7.56-1.45-11.14,0.06c-3.58,1.51-6.36,4.32-7.83,7.92L1.08,321.63
			c-3.03,7.43,0.55,15.94,7.98,18.97l39.27,16.01c1.79,0.73,3.65,1.08,5.47,1.08c5.74,0,11.2-3.42,13.5-9.06l0.36-0.89l9.05,3.69
			c0,0,0.01,0.01,0.02,0.01c8.66,3.53,16.64,8.57,23.54,14.82c1.26,1.14,2.48,2.31,3.66,3.53s2.33,2.47,3.43,3.76
			c0.55,0.64,1.1,1.3,1.63,1.96c10.06,12.55,23.25,22.39,38.15,28.46l10.19,4.15H82.71c-5.25,0-9.51-4.27-9.51-9.52v-18.5
			c0-4.04-3.27-7.31-7.31-7.31s-7.31,3.27-7.31,7.31v18.5c0,13.31,10.83,24.14,24.14,24.14h110.47l94.18,38.4
			c3.24,1.32,6.6,1.95,9.9,1.95c10.38,0,20.24-6.18,24.39-16.37c1.7-4.18,2.25-8.55,1.79-12.75c4.9,0.7,9.98,0.06,14.58-1.93
			c4.68-2.02,8.56-5.24,11.31-9.3h138.52c13.31,0,24.14-10.83,24.14-24.14V63.38C512,63.37,512,63.36,512,63.35z M254.27,14.62
			h62.04l9.59,41.45h-81.22L254.27,14.62z M229.67,56.07H76.59l16.19-41.45h146.48L229.67,56.07z M327.79,173.91L327.79,173.91
			l-35.16-31.15c-2.09-1.85-4.71-2.78-7.33-2.78c-2.62,0-5.24,0.93-7.34,2.78l-35.16,31.15V70.69h84.99V173.91z M53.78,343.04
			l-39.14-15.96l47.97-117.63l39.14,15.96L53.78,343.04z M345.87,387.16l-8.39-3.42c0,0-0.01,0-0.01-0.01c0,0-0.01,0-0.01,0
			c0,0,0,0,0,0l-87.39-35.63c-3.74-1.52-8.01,0.27-9.53,4.01c-1.52,3.74,0.27,8.01,4.01,9.53l87.39,35.63
			c0.36,0.15,0.72,0.31,1.06,0.49c0.1,0.05,0.18,0.11,0.28,0.17c0.24,0.14,0.48,0.27,0.71,0.42c0.11,0.07,0.21,0.16,0.32,0.23
			c0.2,0.14,0.41,0.29,0.6,0.44c0.11,0.09,0.22,0.2,0.33,0.3c0.17,0.15,0.34,0.3,0.5,0.46c0.11,0.11,0.21,0.23,0.32,0.35
			c0.15,0.16,0.3,0.31,0.44,0.48c0.11,0.13,0.2,0.26,0.3,0.39c0.12,0.16,0.26,0.33,0.37,0.49c0.1,0.14,0.18,0.29,0.27,0.44
			c0.1,0.17,0.21,0.33,0.31,0.51c0.09,0.16,0.16,0.32,0.24,0.48c0.08,0.17,0.17,0.34,0.25,0.51c0.07,0.17,0.13,0.34,0.2,0.51
			c0.07,0.17,0.14,0.34,0.2,0.52c0.06,0.18,0.1,0.36,0.15,0.54c0.05,0.18,0.1,0.35,0.14,0.53c0.04,0.18,0.07,0.36,0.1,0.55
			s0.07,0.36,0.1,0.55s0.03,0.37,0.05,0.55c0.02,0.19,0.04,0.37,0.04,0.56c0.01,0.18,0,0.37-0.01,0.55c0,0.19,0,0.38-0.01,0.57
			c-0.01,0.18-0.04,0.36-0.06,0.54c-0.02,0.2-0.04,0.39-0.07,0.58c-0.03,0.18-0.07,0.36-0.11,0.53c-0.04,0.2-0.08,0.39-0.13,0.59
			c-0.05,0.17-0.11,0.35-0.16,0.52c-0.06,0.2-0.12,0.39-0.19,0.58c-0.06,0.13-0.12,0.27-0.18,0.4c-0.01,0.03-0.02,0.06-0.03,0.09
			c-1.14,2.64-3.25,4.73-6,5.92c-3.03,1.31-6.5,1.35-9.52,0.12l-15.48-6.31c-0.07-0.03-0.14-0.05-0.22-0.08
			c-0.07-0.03-0.14-0.07-0.22-0.1l-71.08-28.98c-3.74-1.52-8.01,0.27-9.53,4.01c-1.52,3.74,0.27,8.01,4.01,9.53l71.08,28.98
			c0.08,0.03,0.15,0.05,0.23,0.08c0.07,0.03,0.13,0.07,0.2,0.1c5.96,2.43,8.84,9.27,6.41,15.23c-2.43,5.97-9.26,8.84-15.23,6.41
			l-95.49-38.94c0,0-0.01,0-0.01-0.01l-44.72-18.24c-7.87-3.21-15.18-7.67-21.63-13.15c-3.87-3.29-7.43-6.95-10.63-10.93
			c-3.14-3.92-6.6-7.58-10.31-10.94c-8.17-7.39-17.6-13.35-27.84-17.53c0,0,0,0,0,0l-9.07-3.7l18.06-44.29l17.06-41.85l1.26,0.51
			c1.18,0.48,2.88,1.17,7.42,1.34c5.68,0.26,15.08-0.34,31.92-2.71c11.46-1.62,25.51-3.96,41.91-6.98c0.4-0.07,0.8-0.15,1.21-0.22
			c0.77-0.14,1.54-0.29,2.32-0.43c0.6-0.11,1.21-0.23,1.83-0.34c0.7-0.13,1.4-0.26,2.1-0.39c0.75-0.14,1.51-0.28,2.27-0.43
			c0.61-0.12,1.22-0.23,1.84-0.35c0.93-0.18,1.87-0.36,2.82-0.54c0.49-0.09,0.97-0.19,1.46-0.28c1.45-0.28,2.92-0.56,4.42-0.86
			c42.26-8.22,83.05-17.37,84.88-17.78c0.18-0.04,0.37-0.06,0.55-0.09c4.7-0.7,9.3,2.02,10.64,6.4c0.47,1.54,0.53,3.11,0.23,4.59
			c-0.65,3.25-3.02,6.06-6.4,7.11l-72.48,22.43c-2.95,0.91-5.01,3.58-5.14,6.67c-0.13,3.08,1.68,5.92,4.54,7.09l132.7,54.11
			c2.89,1.18,5.15,3.41,6.36,6.29c1.21,2.88,1.23,6.05,0.05,8.94c-1.18,2.89-3.41,5.15-6.29,6.36c-1.44,0.6-2.95,0.91-4.47,0.92
			c-0.02,0-0.04,0-0.07,0c-0.36,0-0.71-0.01-1.07-0.05c-0.11-0.01-0.21-0.03-0.31-0.04c-0.27-0.03-0.54-0.06-0.81-0.12
			c-0.17-0.03-0.34-0.08-0.51-0.12c-0.2-0.05-0.4-0.09-0.61-0.15c-0.21-0.06-0.41-0.14-0.61-0.21c-0.16-0.06-0.33-0.11-0.49-0.17
			l-87.4-35.64c-3.74-1.52-8.01,0.27-9.53,4.01c-1.52,3.74,0.27,8.01,4.01,9.53l105.95,43.2c0.72,0.29,1.41,0.65,2.04,1.08
			c1.91,1.26,3.41,3.05,4.32,5.21c1.06,2.52,1.2,5.26,0.43,7.85c-0.11,0.37-0.24,0.73-0.39,1.1c-0.15,0.37-0.32,0.73-0.51,1.08
			c-0.43,0.81-0.96,1.54-1.54,2.21c-0.36,0.41-0.75,0.8-1.17,1.15c-0.07,0.06-0.13,0.12-0.19,0.17c-2.67,2.18-6.23,3.12-9.72,2.42
			c-0.71-0.14-1.41-0.35-2.1-0.63L345.87,387.16z"/>
	</g>
</g>
</svg>
