<?xml version="1.0" encoding="utf-8"?>
<!-- Generator: Adobe Illustrator 25.0.0, SVG Export Plug-In . SVG Version: 6.00 Build 0)  -->
<svg version="1.1" id="Capa_1" xmlns="http://www.w3.org/2000/svg" xmlns:xlink="http://www.w3.org/1999/xlink" x="0px" y="0px"
	 viewBox="0 0 512 512" style="enable-background:new 0 0 512 512;" xml:space="preserve">
<g>
	<path d="M420.4,0H91.6C41.09,0,0,41.09,0,91.6V420.4C0,470.91,41.09,512,91.6,512H420.4c50.51,0,91.6-41.09,91.6-91.6V91.6
		C512,41.09,470.91,0,420.4,0L420.4,0z M482,420.4c0,33.96-27.63,61.6-61.6,61.6H91.6C57.63,482,30,454.37,30,420.4V91.6
		C30,57.63,57.63,30,91.6,30H420.4c33.96,0,61.6,27.63,61.6,61.6L482,420.4z"/>
	<path d="M432.73,112.47H204.27c-6.28-18.65-23.93-32.13-44.67-32.13s-38.39,13.48-44.67,32.13H79.27c-8.28,0-15,6.72-15,15
		s6.72,15,15,15h35.66c6.28,18.65,23.93,32.13,44.67,32.13s38.39-13.48,44.67-32.13h228.46c8.28,0,15-6.72,15-15
		S441.02,112.47,432.73,112.47z M159.6,144.6c-9.45,0-17.13-7.69-17.13-17.13s7.69-17.13,17.13-17.13s17.13,7.69,17.13,17.13
		S169.05,144.6,159.6,144.6z"/>
	<path d="M432.73,241h-35.66c-6.28-18.65-23.93-32.13-44.67-32.13s-38.39,13.48-44.67,32.13H79.27c-8.28,0-15,6.72-15,15
		s6.72,15,15,15h228.46c6.28,18.65,23.93,32.13,44.67,32.13s38.39-13.48,44.67-32.13h35.66c8.28,0,15-6.72,15-15
		S441.02,241,432.73,241z M352.4,273.13c-9.45,0-17.13-7.69-17.13-17.13s7.69-17.13,17.13-17.13s17.13,7.69,17.13,17.13
		S361.85,273.13,352.4,273.13z"/>
	<path d="M432.73,369.53H268.54c-6.28-18.65-23.93-32.13-44.67-32.13s-38.39,13.48-44.67,32.13H79.27c-8.28,0-15,6.72-15,15
		s6.72,15,15,15h99.93c6.28,18.65,23.93,32.13,44.67,32.13s38.39-13.48,44.67-32.13h164.2c8.28,0,15-6.72,15-15
		S441.02,369.53,432.73,369.53z M223.87,401.67c-9.45,0-17.13-7.69-17.13-17.13s7.69-17.13,17.13-17.13S241,375.09,241,384.53
		S233.31,401.67,223.87,401.67z"/>
</g>
</svg>
