<?xml version="1.0" encoding="utf-8"?>
<!-- Generator: Adobe Illustrator 25.0.0, SVG Export Plug-In . SVG Version: 6.00 Build 0)  -->
<svg version="1.1" id="Layer_1" xmlns="http://www.w3.org/2000/svg" xmlns:xlink="http://www.w3.org/1999/xlink" x="0px" y="0px"
	 viewBox="0 0 52.5 53.53" style="enable-background:new 0 0 52.5 53.53;" xml:space="preserve">
<style type="text/css">
	.st0{stroke:#000000;stroke-width:0.75;stroke-miterlimit:10;}
</style>
<g>
	<g>
		<g>
			<path class="st0" d="M22.97,52.84H11.12c-0.24,0-0.47-0.11-0.61-0.31c-0.14-0.19-0.19-0.44-0.12-0.68
				c0.03-0.11,3.26-11.26-0.74-15.46c-0.01-0.01-0.03-0.03-0.04-0.04l-7.43-9.08c-1.2-1.46-1.86-3.39-1.86-5.42V8.94
				c0-1.97,1.39-3.57,3.1-3.57c1.66,0,3.02,1.49,3.1,3.4l0.49,9.69c0.09,1.83,0.83,3.51,2.02,4.62c0.03,0.02,0.05,0.05,0.07,0.08
				l5.35,6.56c0.5,0.62,0.97,0.94,1.26,0.87c0.17-0.04,0.31-0.22,0.39-0.36l-5.96-8.32c-0.03-0.04-0.05-0.08-0.07-0.12
				c-1.01-2.12-0.62-3.64,1.28-4.95c0.56-0.39,1.21-0.51,1.86-0.35c1.31,0.31,2.35,1.67,2.75,2.37l7.63,10.9
				c0.09,0.13,0.14,0.28,0.14,0.44v21.87C23.74,52.5,23.39,52.84,22.97,52.84z M12.12,51.31h10.09V30.44L14.69,19.7
				c-0.02-0.02-0.03-0.05-0.05-0.07c-0.31-0.57-1.09-1.49-1.78-1.65c-0.24-0.06-0.43-0.02-0.64,0.12c-1.26,0.87-1.45,1.57-0.8,2.97
				l6.11,8.52c0.04,0.05,0.06,0.1,0.09,0.16c0.25,0.63-0.25,1.65-1.03,2.11c-0.48,0.28-1.78,0.74-3.33-1.18l-5.31-6.52
				c-1.45-1.38-2.35-3.43-2.46-5.63L5,8.84C4.96,7.77,4.25,6.91,3.43,6.91c-0.87,0-1.57,0.91-1.57,2.04v12.91
				c0,1.66,0.55,3.28,1.51,4.45l7.41,9.06C14.63,39.45,12.86,48.33,12.12,51.31z"/>
		</g>
		<g>
			<path class="st0" d="M41.38,52.84H29.53c-0.42,0-0.77-0.34-0.77-0.77V30.2c0-0.15,0.04-0.3,0.13-0.42l8.73-13.2
				c0.39-0.71,1.44-2.07,2.75-2.38c0.66-0.16,1.3-0.04,1.86,0.35c1.9,1.31,2.3,2.83,1.28,4.95c-0.02,0.03-0.03,0.06-0.05,0.09
				L36.4,30.21c0.07,0.14,0.22,0.33,0.39,0.37c0.29,0.07,0.76-0.25,1.26-0.86l5.35-6.56c0.02-0.03,0.05-0.05,0.07-0.08
				c1.19-1.11,1.92-2.79,2.02-4.62l0.49-9.7c0.08-1.9,1.44-3.39,3.1-3.39c1.71,0,3.1,1.6,3.1,3.57v12.91c0,2.03-0.66,3.96-1.86,5.42
				l-7.43,9.08c-0.01,0.01-0.02,0.03-0.04,0.04c-4,4.21-0.77,15.35-0.74,15.46c0.07,0.23,0.02,0.48-0.12,0.68
				C41.85,52.73,41.62,52.84,41.38,52.84z M30.3,51.31h10.09c-0.74-2.98-2.52-11.85,1.34-15.95l7.41-9.06
				c0.96-1.17,1.51-2.8,1.51-4.45V8.94c0-1.12-0.7-2.04-1.57-2.04c-0.82,0-1.52,0.87-1.57,1.93l-0.49,9.7
				c-0.11,2.2-1.01,4.25-2.46,5.63l-5.31,6.52c-1.55,1.92-2.84,1.46-3.33,1.17c-0.78-0.46-1.28-1.49-1.03-2.11
				c0.02-0.05,0.04-0.09,0.07-0.14l7.21-10.82c0.66-1.41,0.47-2.11-0.79-2.98c-0.2-0.14-0.4-0.18-0.64-0.12
				c-0.7,0.17-1.48,1.09-1.78,1.65c-0.01,0.02-0.02,0.04-0.03,0.06L30.3,30.43V51.31z"/>
		</g>
		<g>
			<path class="st0" d="M26.18,21.12c-0.19,0-0.39-0.07-0.54-0.22c-0.37-0.36-8.97-8.84-8.91-14.19c0.02-1.53,0.62-2.96,1.69-4.04
				C19.5,1.6,20.93,1,22.46,1c1.37,0,2.69,0.49,3.72,1.37C27.21,1.49,28.53,1,29.9,1c1.55,0,3.06,0.63,4.14,1.74
				c1.06,1.09,1.62,2.51,1.59,4l0,0c-0.13,5.39-8.54,13.8-8.9,14.16C26.57,21.05,26.37,21.12,26.18,21.12z M22.46,2.53
				c-2.28,0-4.16,1.88-4.19,4.2c-0.04,3.63,5.26,9.82,7.9,12.53c1.84-1.93,7.82-8.5,7.92-12.56c0.03-1.08-0.38-2.11-1.15-2.89
				C32.14,3,31.04,2.53,29.9,2.53c-1.2,0-2.35,0.52-3.14,1.42c-0.15,0.16-0.35,0.26-0.57,0.26l0,0c-0.22,0-0.43-0.09-0.57-0.26
				C24.81,3.05,23.66,2.53,22.46,2.53z"/>
		</g>
	</g>
</g>
</svg>
