<?xml version="1.0" encoding="utf-8"?>
<!-- Generator: Adobe Illustrator 25.0.0, SVG Export Plug-In . SVG Version: 6.00 Build 0)  -->
<svg version="1.1" id="Layer_1" xmlns="http://www.w3.org/2000/svg" xmlns:xlink="http://www.w3.org/1999/xlink" x="0px" y="0px"
	 viewBox="0 0 512 512" style="enable-background:new 0 0 512 512;" xml:space="preserve">
<style type="text/css">
	.st0{stroke:#000000;stroke-width:4;stroke-miterlimit:10;}
</style>
<g>
	<path class="st0" d="M510.82,219.26l-48.6-145.81c-4.98-14.96-16.31-26.71-31.07-32.24C316.45-1.8,322.63,0.49,321.9,0.31
		c-1.57-0.38-130.17-0.32-131.39-0.09c-1.01,0.19,6-2.38-109.64,40.99C66.12,46.75,54.79,58.5,49.81,73.45
		C-3.32,232.85,0.04,221.18,0.04,226.44c0,11.79,9.21,21.73,20.96,22.63l83.03,6.39v224.57c0,3.33,2.07,6.32,5.19,7.49
		c83.83,31.44,203.65,33.73,293.59,0c3.12-1.17,5.19-4.15,5.19-7.49V255.46l83.03-6.39C505.48,247.96,515.54,233.41,510.82,219.26z
		 M256.02,80.07c35.88,0,65.71-26.39,71.11-60.78L342.35,25c-7.97,40.92-44.03,71.07-86.33,71.07s-78.36-30.15-86.33-71.07
		l15.22-5.71C190.3,53.68,220.13,80.07,256.02,80.07L256.02,80.07z M200.6,16.07h110.83c-3.89,27.1-27.25,48-55.41,48
		C227.86,64.07,204.5,43.17,200.6,16.07z M489.81,233.12l-81.8,6.29v-55.36c0-4.42-3.58-8-8-8s-8,3.58-8,8v290.37
		c-80.3,28.31-188.98,29.25-271.97,0c0-9.05,0-284.15,0-290.37c0-4.42-3.58-8-8-8s-8,3.58-8,8v55.36l-81.8-6.29
		c-3.47-0.27-6.19-3.2-6.19-6.68c0-1.69-2.99,7.87,48.95-147.93c3.45-10.35,11.29-18.49,21.51-22.32l68.01-25.5
		c10.43,47.03,52.42,81.38,101.51,81.38s91.08-34.34,101.51-81.38l68.01,25.51c10.22,3.83,18.06,11.97,21.51,22.32
		c52.05,156.16,48.95,146.31,48.95,147.93C495.99,229.92,493.27,232.85,489.81,233.12L489.81,233.12z"/>
</g>
</svg>
