<?xml version="1.0" encoding="utf-8"?>
<!-- Generator: Adobe Illustrator 25.0.0, SVG Export Plug-In . SVG Version: 6.00 Build 0)  -->
<svg version="1.1" id="Layer_1" xmlns="http://www.w3.org/2000/svg" xmlns:xlink="http://www.w3.org/1999/xlink" x="0px" y="0px"
	 viewBox="0 0 10 3.93" style="enable-background:new 0 0 10 3.93;" xml:space="preserve">
<style type="text/css">
	.st0{fill-rule:evenodd;clip-rule:evenodd;}
</style>
<g>
	<g>
		<path class="st0" d="M0.49,0h1.5c0,0,0.12-0.02,0.28,0.29l0.77,1.36c0,0,0.1,0.18,0.24,0.19h0.4L3.2,2.49l-0.26,0
			c0,0-0.21,0-0.38-0.33l-0.78-1.4c0,0-0.05-0.12-0.22-0.11H0L0.49,0z"/>
		<path class="st0" d="M0.87,0.77h0.77l0.91,1.61c0,0,0.08,0.19,0.29,0.23l0.27,0L2.67,3.2H2.39c0,0-0.18,0.01-0.3-0.23L0.87,0.77z"
			/>
		<path class="st0" d="M0,0.77h0.74l1.33,2.39c0,0,0.06,0.14,0.21,0.15h0.31L2.12,3.93H1.86c0,0-0.12,0-0.23-0.21L0,0.77z"/>
	</g>
	<path class="st0" d="M7.93,1.85H6.31c0,0-0.18-0.01-0.31,0.17L4.74,3.71c0,0-0.19,0.22,0.15,0.22h1.49l0.48-0.64l-0.69,0
		c0,0-0.14,0.01-0.05-0.11L6.6,2.54c0,0,0.04-0.04,0.19-0.04h0.66L7.93,1.85z"/>
	<path class="st0" d="M8.64,2.49l0.04-0.05l-0.2,0c0,0-0.03-0.01-0.07,0.05c0,0-0.08,0.1,0,0.1l0.66,0c0,0,0.2-0.01,0.09,0.14
		L8.36,3.79c0,0-0.08,0.14-0.32,0.14H6.82c0,0-0.24-0.02-0.14-0.16l0.36-0.48h0.77L7.75,3.37h0.21c0,0,0.02,0.01,0.06-0.05
		c0,0,0.11-0.13,0.04-0.13H7.33c0,0-0.17-0.03-0.09-0.17l0.81-1.07c0,0,0.06-0.1,0.19-0.1h1.33c0,0,0.26-0.01,0.12,0.18L9.33,2.49
		L8.64,2.49z"/>
	<polygon class="st0" points="3.86,1.85 3.38,2.49 3.97,2.49 2.89,3.93 3.8,3.93 4.88,2.49 5.47,2.49 5.95,1.85 	"/>
	<g>
		<g>
			<path class="st0" d="M9.63,1.37C9.6,1.4,9.58,1.45,9.58,1.5c0,0.05,0.02,0.1,0.06,0.14C9.67,1.68,9.72,1.7,9.77,1.7
				c0.05,0,0.1-0.02,0.14-0.06C9.95,1.61,9.97,1.56,9.97,1.5c0-0.05-0.02-0.1-0.06-0.14C9.87,1.33,9.83,1.31,9.77,1.31
				C9.72,1.31,9.67,1.33,9.63,1.37z M9.93,1.67c-0.04,0.04-0.1,0.07-0.16,0.07c-0.06,0-0.12-0.02-0.16-0.07
				C9.57,1.62,9.54,1.57,9.54,1.5c0-0.06,0.02-0.12,0.07-0.16c0.04-0.04,0.1-0.07,0.16-0.07c0.06,0,0.12,0.02,0.16,0.07
				C9.98,1.39,10,1.44,10,1.5C10,1.57,9.98,1.62,9.93,1.67z M9.81,1.42C9.8,1.41,9.79,1.41,9.76,1.41H9.72V1.5h0.04
				c0.02,0,0.03,0,0.04-0.01c0.02-0.01,0.03-0.02,0.03-0.04C9.83,1.44,9.83,1.42,9.81,1.42z M9.77,1.38c0.03,0,0.05,0,0.07,0.01
				C9.86,1.4,9.87,1.42,9.87,1.45c0,0.02-0.01,0.04-0.02,0.05C9.84,1.51,9.83,1.51,9.81,1.51c0.02,0,0.03,0.01,0.04,0.02
				c0.01,0.01,0.01,0.03,0.01,0.04v0.02c0,0.01,0,0.01,0,0.02c0,0.01,0,0.01,0,0.01l0,0H9.83c0,0,0,0,0,0c0,0,0,0,0,0l0-0.01V1.6
				c0-0.03-0.01-0.05-0.02-0.06C9.8,1.53,9.78,1.53,9.76,1.53H9.72v0.1H9.68V1.38H9.77z"/>
		</g>
	</g>
</g>
</svg>
