<?xml version="1.0" encoding="utf-8"?>
<!-- Generator: Adobe Illustrator 25.0.0, SVG Export Plug-In . SVG Version: 6.00 Build 0)  -->
<svg version="1.1" id="Layer_1" xmlns="http://www.w3.org/2000/svg" xmlns:xlink="http://www.w3.org/1999/xlink" x="0px" y="0px"
	 viewBox="0 0 10 10" style="enable-background:new 0 0 10 10;" xml:space="preserve">
<path d="M9.92,4.22L5.13,0.07C5.06,0,4.94,0,4.87,0.07L0.08,4.22C0.03,4.26,0.01,4.31,0.01,4.37v5.42c0,0.11,0.09,0.2,0.2,0.2h9.59
	c0.11,0,0.2-0.09,0.2-0.2V4.37C9.99,4.31,9.97,4.26,9.92,4.22z M6.1,8.13H5.03V7.06H6.1V8.13z M4.63,8.13H3.56V7.06h1.07V8.13z
	 M3.9,8.52v1.06H2.83V8.52L3.9,8.52z M4.3,8.52h1.07v1.06H4.3V8.52z M5.76,9.59V8.52h1.07v1.06L5.76,9.59z M7.23,9.59V8.33
	c0-0.11-0.09-0.2-0.2-0.2H6.49V6.86c0-0.11-0.09-0.2-0.2-0.2H3.37c-0.11,0-0.2,0.09-0.2,0.2v1.26H2.63c-0.11,0-0.2,0.09-0.2,0.2
	v1.26H1.32V5.2h7.16v4.39L7.23,9.59z M9.6,9.59H8.88V5c0-0.11-0.09-0.2-0.2-0.2H1.12c-0.11,0-0.2,0.09-0.2,0.2v4.58H0.4V4.46L5,0.48
	l4.6,3.98V9.59z"/>
</svg>
