<?xml version="1.0" encoding="utf-8"?>
<!-- Generator: Adobe Illustrator 25.0.0, SVG Export Plug-In . SVG Version: 6.00 Build 0)  -->
<svg version="1.1" id="Layer_1" xmlns="http://www.w3.org/2000/svg" xmlns:xlink="http://www.w3.org/1999/xlink" x="0px" y="0px"
	 viewBox="0 0 39.57 39.57" style="enable-background:new 0 0 39.57 39.57;" xml:space="preserve">
<style type="text/css">
	.st0{fill:#4F4C4D;}
</style>
<path class="st0" d="M5.8,39.57h12.9V25.5h-4.64v-4.64h4.64v-5.8c0-3.2,2.6-5.8,5.8-5.8h5.8v4.64h-4.64c-1.28,0-2.32,1.04-2.32,2.32
	v4.64h6.75l-0.77,4.64h-5.97v14.06h10.43c3.2,0,5.8-2.6,5.8-5.8V5.8c0-3.2-2.6-5.8-5.8-5.8H5.8C2.6,0,0,2.6,0,5.8v27.98
	C0,36.97,2.6,39.57,5.8,39.57L5.8,39.57z"/>
</svg>
