<?xml version="1.0" encoding="utf-8"?>
<!-- Generator: Adobe Illustrator 25.0.0, SVG Export Plug-In . SVG Version: 6.00 Build 0)  -->
<svg version="1.1" id="OBJECTS" xmlns="http://www.w3.org/2000/svg" xmlns:xlink="http://www.w3.org/1999/xlink" x="0px" y="0px"
	 viewBox="0 0 23.82 45.65" style="enable-background:new 0 0 23.82 45.65;" xml:space="preserve">
<style type="text/css">
	.st0{fill:#FFFFFF;}
</style>
<g>
	<g>
		<g>
			<path class="st0" d="M1002.7,76.22c0,2.09-1.33,3.8-3.8,3.8c-2.28,0-3.8-1.71-3.8-3.61c0-2.09,1.52-3.99,3.8-3.99
				S1002.7,74.13,1002.7,76.22z"/>
		</g>
		<g>
			<rect x="995.1" y="81.92" class="st0" width="7.59" height="24.67"/>
		</g>
		<g>
			<path class="st0" d="M1020.91,82.3c-3.99,0-6.26,2.28-7.21,3.8h-0.19l-0.38-3.23h-6.83c0,2.09,0.19,4.55,0.19,7.4v16.32h7.59
				V93.11c0-0.76,0-1.33,0.19-1.9c0.57-1.33,1.52-3.04,3.61-3.04c2.66,0,3.8,2.28,3.8,5.31v13.09h7.59V92.54
				C1029.26,85.52,1025.66,82.3,1020.91,82.3z"/>
		</g>
	</g>
</g>
<g>
	<g>
		<g>
			<path class="st0" d="M929.47,89.31c0.02,0.1,0.03,0.21,0.02,0.31C929.51,89.51,929.51,89.41,929.47,89.31z"/>
		</g>
		<g>
			<path class="st0" d="M921.77,72.47c-21.74,0-22.12,1.93-22.12,17.03c0,15.1,0.38,17.03,22.12,17.03s22.12-1.93,22.12-17.03
				C943.89,74.41,943.51,72.47,921.77,72.47z M928.82,90.62l-9.98,4.82c-0.8,0.39-1.73-0.2-1.73-1.09v-9.43
				c0-0.88,0.91-1.47,1.71-1.1l9.98,4.6c0.39,0.18,0.6,0.51,0.67,0.87c0.04,0.1,0.04,0.21,0.02,0.31
				C929.46,90.02,929.24,90.41,928.82,90.62z"/>
		</g>
	</g>
</g>
<g>
	<g>
		<g>
			<path class="st0" d="M717.98,102.61c4.57,0.4,8.58-0.69,12.29-3.34c-0.8-0.2-1.48-0.34-2.14-0.55c-2.48-0.78-4.21-2.43-5.28-4.77
				c-0.33-0.72-0.26-0.78,0.53-0.77c0.82,0.01,1.65,0.13,2.61-0.23c-1.48-0.43-2.67-1.08-3.68-2.02c-1.61-1.5-2.57-3.35-2.74-5.57
				c-0.07-0.9,0.05-0.96,0.84-0.59c0.78,0.36,1.59,0.59,2.57,0.6c-0.61-0.7-1.27-1.21-1.74-1.89c-1.87-2.71-2.19-5.58-0.9-8.62
				c0.34-0.81,0.48-0.84,1.06-0.18c2.86,3.21,6.29,5.58,10.37,6.99c1.8,0.62,3.64,1.03,5.53,1.22c0.97,0.1,1.05-0.01,0.94-0.96
				c-0.4-3.39,1.52-6.93,4.62-8.54c3.11-1.62,7.1-1.16,9.63,1.16c0.49,0.45,0.96,0.55,1.58,0.38c1.32-0.36,2.6-0.83,3.81-1.47
				c0.19-0.1,0.35-0.3,0.7-0.17c-0.58,1.81-1.73,3.19-3.18,4.38c1.43-0.17,2.77-0.58,4.15-1.12c0.03,0.48-0.25,0.72-0.45,0.97
				c-0.85,1.1-1.8,2.12-2.92,2.95c-0.53,0.39-0.7,0.83-0.69,1.47c0.09,5.7-1.74,10.78-5.15,15.28c-4.05,5.35-9.48,8.37-16.12,9.17
				c-5.49,0.67-10.65-0.37-15.46-3.13c-0.18-0.1-0.34-0.21-0.51-0.33C718.2,102.9,718.16,102.83,717.98,102.61z"/>
		</g>
	</g>
</g>
<g>
	<g>
		<g>
			<path class="st0" d="M808.6,79.7c0.37-1.95,0.72-3.9,1.78-5.64c2.42-3.95,6.21-5.47,10.57-5.57c5.95-0.15,11.91-0.14,17.87,0
				c4.04,0.1,7.64,1.43,10.1,4.93c1.58,2.26,2.17,4.84,2.21,7.51c0.09,5.72,0.13,11.45-0.01,17.17c-0.11,4.61-1.71,8.54-6.02,10.88
				c-1.99,1.08-4.18,1.55-6.41,1.58c-5.88,0.07-11.76,0.13-17.64-0.01c-4.41-0.1-8.24-1.59-10.69-5.58
				c-1.06-1.73-1.41-3.69-1.78-5.64C808.6,92.79,808.6,86.24,808.6,79.7z M829.93,72.52c-2.92,0-5.84-0.06-8.76,0.01
				c-4.56,0.11-7.36,2.24-8.19,6.17c-0.18,0.83-0.31,1.69-0.31,2.54c-0.03,5.53-0.1,11.06,0.01,16.59c0.11,5.5,2.89,8.44,8.2,8.64
				c5.99,0.22,11.99,0.2,17.98,0c4.42-0.15,7.05-2.27,7.89-6.09c0.15-0.68,0.29-1.38,0.3-2.08c0.03-6.3,0.38-12.61-0.19-18.9
				c-0.34-3.73-2.83-6.16-6.55-6.67C836.86,72.26,833.38,72.59,829.93,72.52z"/>
		</g>
		<g>
			<path class="st0" d="M840.91,89.59c-0.02,5.94-4.95,10.82-11,10.89c-6.07,0.07-11.11-4.94-11.09-11.03
				c0.02-5.99,5.13-11.01,11.11-10.89C836.07,78.67,840.93,83.55,840.91,89.59z M836.81,89.53c0.01-3.78-3.11-6.88-6.93-6.9
				c-3.8-0.02-6.96,3.09-6.97,6.86c-0.01,3.78,3.11,6.88,6.93,6.9C833.65,96.42,836.81,93.3,836.81,89.53z"/>
		</g>
		<g>
			<path class="st0" d="M841.21,75.67c1.46-0.02,2.7,1.19,2.7,2.64c-0.01,1.38-1.2,2.57-2.61,2.61c-1.46,0.04-2.73-1.15-2.75-2.59
				C838.51,76.88,839.7,75.69,841.21,75.67z"/>
		</g>
	</g>
</g>
<g>
	<g>
		<path d="M20.05,8.2h3.77v-8.2L18.15,0C10.11,0,6.29,4.78,6.29,11.59v6.45H0v7.79h6.29v19.81h9.44V25.84h6.29l1.79-7.79h-8.08
			v-5.32C15.74,10.55,16.93,8.2,20.05,8.2z"/>
	</g>
</g>
</svg>
