<?xml version="1.0" encoding="utf-8"?>
<!-- Generator: Adobe Illustrator 25.0.0, SVG Export Plug-In . SVG Version: 6.00 Build 0)  -->
<svg version="1.1" id="Layer_1" xmlns="http://www.w3.org/2000/svg" xmlns:xlink="http://www.w3.org/1999/xlink" x="0px" y="0px"
	 viewBox="0 0 39.57 39.57" style="enable-background:new 0 0 39.57 39.57;" xml:space="preserve">
<style type="text/css">
	.st0{fill:#4F4C4D;}
</style>
<g>
	<ellipse class="st0" cx="19.78" cy="19.78" rx="8.11" ry="8.11"/>
	<path class="st0" d="M31.38,7.03c-0.64,0-1.16,0.52-1.16,1.16s0.52,1.16,1.16,1.16c0.64,0,1.16-0.52,1.16-1.16
		C32.53,7.55,32.01,7.03,31.38,7.03z"/>
	<path class="st0" d="M33.77,0H5.8C2.6,0,0,2.6,0,5.8v27.98c0,3.2,2.6,5.8,5.8,5.8h27.98c3.2,0,5.8-2.6,5.8-5.8V5.8
		C39.57,2.6,36.97,0,33.77,0z M19.78,30.22c-5.75,0-10.43-4.68-10.43-10.43S14.03,9.35,19.78,9.35s10.43,4.68,10.43,10.43
		S25.54,30.22,19.78,30.22z M31.38,11.67c-1.92,0-3.48-1.56-3.48-3.48s1.56-3.48,3.48-3.48s3.48,1.56,3.48,3.48
		C34.85,10.11,33.29,11.67,31.38,11.67z"/>
</g>
</svg>
