<?xml version="1.0" encoding="utf-8"?>
<!-- Generator: Adobe Illustrator 25.0.0, SVG Export Plug-In . SVG Version: 6.00 Build 0)  -->
<svg version="1.1" id="Layer_1" xmlns="http://www.w3.org/2000/svg" xmlns:xlink="http://www.w3.org/1999/xlink" x="0px" y="0px"
	 viewBox="0 0 10.5 10.5" style="enable-background:new 0 0 10.5 10.5;" xml:space="preserve">
<style type="text/css">
	.st0{fill:#4F4C4D;}
</style>
<g>
	<path class="st0" d="M9.8,0c0.2,0,0.4,0.1,0.5,0.2s0.2,0.3,0.2,0.5v9c0,0.2-0.1,0.4-0.2,0.5s-0.3,0.2-0.5,0.2h-9
		c-0.2,0-0.4-0.1-0.5-0.2S0,10,0,9.8v-9c0-0.2,0.1-0.4,0.2-0.5S0.5,0,0.8,0H9.8z M1.8,3C2,3.2,2.2,3.3,2.4,3.3S2.9,3.2,3,3
		s0.3-0.4,0.3-0.6S3.2,1.9,3,1.8S2.6,1.5,2.4,1.5S1.9,1.6,1.8,1.8S1.5,2.2,1.5,2.4S1.6,2.9,1.8,3z M3.2,9L3.2,9V4H1.6v5H3.2z M9,9
		V6.3c0-0.4,0-0.7-0.1-1S8.8,4.8,8.7,4.6S8.4,4.2,8.1,4s-0.6-0.1-1-0.1S6.4,4,6.2,4.1S5.8,4.4,5.7,4.7l0,0V4H4.1v5h1.6V6.5
		c0-0.4,0.1-0.7,0.2-0.9s0.4-0.4,0.7-0.4c0.2,0,0.3,0,0.5,0.1s0.2,0.2,0.2,0.4S7.4,6,7.4,6.1s0,0.3,0,0.5V9H9z"/>
</g>
</svg>
