<?xml version="1.0" encoding="utf-8"?>
<!-- Generator: Adobe Illustrator 25.0.0, SVG Export Plug-In . SVG Version: 6.00 Build 0)  -->
<svg version="1.1" id="Layer_1" xmlns="http://www.w3.org/2000/svg" xmlns:xlink="http://www.w3.org/1999/xlink" x="0px" y="0px"
	 viewBox="0 0 10.5 10.5" style="enable-background:new 0 0 10.5 10.5;" xml:space="preserve">
<g>
	<path d="M9.8,0c0.2,0,0.4,0.1,0.5,0.2s0.2,0.3,0.2,0.5v9c0,0.2-0.1,0.4-0.2,0.5s-0.3,0.2-0.5,0.2h-9c-0.2,0-0.4-0.1-0.5-0.2
		S0,10,0,9.8v-9c0-0.2,0.1-0.4,0.2-0.5S0.5,0,0.8,0H9.8z M1.8,3c0.2,0.2,0.4,0.3,0.6,0.3S2.9,3.2,3,3s0.3-0.4,0.3-0.6S3.2,1.9,3,1.8
		S2.6,1.5,2.4,1.5S1.9,1.6,1.8,1.8S1.5,2.2,1.5,2.4S1.6,2.9,1.8,3z M3.2,9L3.2,9l0-5H1.6v5H3.2z M9,9V6.3c0-0.4,0-0.7-0.1-1
		S8.8,4.8,8.7,4.6S8.4,4.2,8.1,4S7.5,3.9,7.1,3.9c-0.4,0-0.7,0.1-0.9,0.2S5.8,4.4,5.7,4.7h0V4H4.1v5h1.6V6.5c0-0.4,0.1-0.7,0.2-0.9
		s0.4-0.4,0.7-0.4c0.2,0,0.3,0,0.5,0.1s0.2,0.2,0.2,0.4S7.4,6,7.4,6.1s0,0.3,0,0.5V9H9z"/>
</g>
</svg>
