<?xml version="1.0" encoding="utf-8"?>
<!-- Generator: Adobe Illustrator 25.0.0, SVG Export Plug-In . SVG Version: 6.00 Build 0)  -->
<svg version="1.1" id="Layer_1" xmlns="http://www.w3.org/2000/svg" xmlns:xlink="http://www.w3.org/1999/xlink" x="0px" y="0px"
	 viewBox="0 0 47.48 38.86" style="enable-background:new 0 0 47.48 38.86;" xml:space="preserve">
<style type="text/css">
	.st0{fill:#4F4C4D;}
</style>
<path class="st0" d="M47.48,5.19c-2.99,0.14-2.92,0.13-3.26,0.15l1.77-5.05c0,0-5.52,2.03-6.92,2.39c-3.68-3.3-9.14-3.45-13.05-1.05
	c-3.2,1.97-4.92,5.34-4.34,9.29c-6.23-0.86-11.47-3.81-15.61-8.79L4.76,0.57l-0.98,1.8c-1.24,2.26-1.65,4.86-1.16,7.3
	c0.2,1,0.54,1.96,1.02,2.85l-1.12-0.44l-0.13,1.88c-0.13,1.91,0.5,4.13,1.7,5.95C4.42,20.44,4.85,21,5.4,21.56l-0.58-0.09l0.71,2.15
	c0.93,2.83,2.87,5.01,5.38,6.23c-2.51,1.06-4.53,1.74-7.86,2.84l-3.05,1l2.81,1.54c1.07,0.59,4.86,2.55,8.61,3.13
	c8.32,1.31,17.7,0.24,24-5.44c5.31-4.79,7.06-11.59,6.7-18.68c-0.05-1.07,0.24-2.1,0.83-2.88C44.13,9.78,47.47,5.2,47.48,5.19
	L47.48,5.19z"/>
</svg>
