<?xml version="1.0" encoding="utf-8"?>
<!-- Generator: Adobe Illustrator 25.0.0, SVG Export Plug-In . SVG Version: 6.00 Build 0)  -->
<svg version="1.1" id="Layer_1" xmlns="http://www.w3.org/2000/svg" xmlns:xlink="http://www.w3.org/1999/xlink" x="0px" y="0px"
	 viewBox="0 0 39.57 39.57" style="enable-background:new 0 0 39.57 39.57;" xml:space="preserve">
<style type="text/css">
	.st0{fill:#4F4C4D;}
</style>
<g>
	<path class="st0" d="M2.33,19.78"/>
	<path class="st0" d="M19.71,0C8.85,0,0.01,8.87,0.01,19.78c0,3.64,0.97,7.16,2.81,10.22L0,39.57l9.57-2.82
		c3.06,1.84,6.55,2.81,10.14,2.81c10.88,0,19.85-8.88,19.85-19.78C39.57,8.89,30.61,0,19.71,0z M31.89,28.08L30.97,29
		c-1.65,1.65-5.03,1.58-7.33,1.15c-2.01-0.38-5.88-1.52-9.18-4.83c-3.31-3.31-4.44-7.17-4.83-9.18c-0.61-3.2-0.17-6.01,1.15-7.33
		l0,0l0.92-0.92c0.96-0.96,2.52-0.96,3.48,0l3.68,3.68c0.96,0.96,0.96,2.52,0,3.48l-0.92,0.92c-0.56,0.56-0.56,1.48,0,2.04
		c0.01,0.01,0.01,0.01,0.02,0.02l3.67,3.83c0.57,0.56,1.63,0.56,2.19-0.01l0.92-0.92c0.46-0.46,1.08-0.72,1.74-0.72
		s1.27,0.26,1.74,0.72l3.68,3.68c0.46,0.46,0.72,1.08,0.72,1.74C32.62,27,32.36,27.61,31.89,28.08z"/>
</g>
</svg>
