<?xml version="1.0" encoding="utf-8"?>
<!-- Generator: Adobe Illustrator 25.0.0, SVG Export Plug-In . SVG Version: 6.00 Build 0)  -->
<svg version="1.1" id="Layer_1" xmlns="http://www.w3.org/2000/svg" xmlns:xlink="http://www.w3.org/1999/xlink" x="0px" y="0px"
	 viewBox="0 0 22 27.5" style="enable-background:new 0 0 22 27.5;" xml:space="preserve">
<path d="M18.94,14.75c-0.45,3.62-3.32,6.49-6.94,6.94v2.06c0,0.55-0.45,1-1,1s-1-0.45-1-1v-2.06c-3.62-0.45-6.49-3.32-6.94-6.94H1
	c-0.55,0-1-0.45-1-1s0.45-1,1-1h2.06C3.51,9.13,6.38,6.26,10,5.81V3.75c0-0.55,0.45-1,1-1s1,0.45,1,1v2.06
	c3.62,0.45,6.49,3.32,6.94,6.94H21c0.55,0,1,0.45,1,1s-0.45,1-1,1H18.94z M11,19.75c3.31,0,6-2.69,6-6s-2.69-6-6-6s-6,2.69-6,6
	S7.69,19.75,11,19.75z M11,15.75c-1.1,0-2-0.9-2-2s0.9-2,2-2s2,0.9,2,2S12.1,15.75,11,15.75z"/>
</svg>
