<?xml version="1.0" encoding="utf-8"?>
<!-- Generator: Adobe Illustrator 25.0.0, SVG Export Plug-In . SVG Version: 6.00 Build 0)  -->
<svg version="1.1" id="Foreground" xmlns="http://www.w3.org/2000/svg" xmlns:xlink="http://www.w3.org/1999/xlink" x="0px" y="0px"
	 viewBox="0 0 595 595.02" style="enable-background:new 0 0 595 595.02;" xml:space="preserve">
<style type="text/css">
	.st0{fill:#FFFFFF;}
</style>
<g>
	<path class="st0" d="M585.4,538.92L433.46,386.76c80.4-106.19,59.49-257.45-46.7-337.86S129.31-10.59,48.91,95.61
		s-59.49,257.45,46.7,337.86c86.1,65.19,205.05,65.19,291.16,0L538.7,585.4c12.84,12.82,33.64,12.82,46.48,0
		c12.89-12.62,13.12-33.3,0.5-46.2C585.59,539.11,585.49,539.01,585.4,538.92z M68.85,242.72C68.8,146.7,146.6,68.81,242.62,68.76
		c96.02-0.05,173.91,77.74,173.96,173.76c0.03,45.79-18.02,89.75-50.21,122.32h-1.53v1.1c-68.06,67.57-178,67.17-245.57-0.89
		C86.98,332.52,68.86,288.55,68.85,242.72z"/>
</g>
</svg>
