<?xml version="1.0" encoding="utf-8"?>
<!-- Generator: Adobe Illustrator 25.0.0, SVG Export Plug-In . SVG Version: 6.00 Build 0)  -->
<svg version="1.1" id="Layer_1" xmlns="http://www.w3.org/2000/svg" xmlns:xlink="http://www.w3.org/1999/xlink" x="0px" y="0px"
	 viewBox="0 0 496 375.72" style="enable-background:new 0 0 496 375.72;" xml:space="preserve">
<g>
	<path d="M96,295.71c-13.25,0-24,10.75-24,24s10.75,24,24,24s24-10.75,24-24C119.99,306.46,109.25,295.73,96,295.71z M96,327.71
		c-4.42,0-8-3.58-8-8s3.58-8,8-8s8,3.58,8,8C104,324.13,100.42,327.71,96,327.71z"/>
	<path d="M400,295.71c-13.25,0-24,10.75-24,24s10.75,24,24,24s24-10.75,24-24C423.99,306.46,413.25,295.73,400,295.71z M400,327.71
		c-4.42,0-8-3.58-8-8s3.58-8,8-8s8,3.58,8,8C408,324.13,404.42,327.71,400,327.71z"/>
	<path d="M494.73,187.38l-72-112c-1.47-2.29-4.01-3.67-6.73-3.67h-96v-44c-0.02-15.46-12.54-27.98-28-28H28
		c-15.46,0.02-27.98,12.54-28,28v292c0,4.42,3.58,8,8,8h32.58C45,358.32,73.39,379.55,104,375.14
		c24.57-3.55,43.88-22.85,47.42-47.42h193.16c4.42,30.61,32.81,51.84,63.42,47.42c24.57-3.55,43.88-22.85,47.42-47.42H488
		c4.42,0,8-3.58,8-8v-128C496,190.18,495.56,188.68,494.73,187.38z M96,359.71c-22.09,0-40-17.91-40-40s17.91-40,40-40
		s40,17.91,40,40C135.98,341.8,118.08,359.69,96,359.71z M304,311.71H151.42C147,281.11,118.61,259.87,88,264.29
		c-24.57,3.55-43.88,22.85-47.42,47.42H16v-80h288V311.71z M304,215.71H16v-188c0.01-6.63,5.37-11.99,12-12h264
		c6.63,0.01,11.99,5.37,12,12V215.71z M427.06,111.71l46.29,72H360v-72H427.06z M400,359.71c-22.09,0-40-17.91-40-40s17.91-40,40-40
		s40,17.91,40,40C439.98,341.8,422.08,359.69,400,359.71z M480,247.71h-16c-4.42,0-8-3.58-8-8s3.58-8,8-8h16V247.71z M480,215.71
		h-16c-13.25,0-24,10.75-24,24s10.75,24,24,24h16v48h-24.58c-4.42-30.61-32.81-51.84-63.42-47.42
		c-24.57,3.55-43.88,22.85-47.42,47.42H320v-224h91.63l5.15,8H352c-4.42,0-8,3.58-8,8v88c0,4.42,3.58,8,8,8h128V215.71z"/>
	<path d="M376,215.71h-24c-4.42,0-8,3.58-8,8s3.58,8,8,8h24c4.42,0,8-3.58,8-8S380.42,215.71,376,215.71z"/>
	<path d="M208,263.71h64c4.42,0,8-3.58,8-8s-3.58-8-8-8h-64c-4.42,0-8,3.58-8,8S203.58,263.71,208,263.71z"/>
	<path d="M272,271.71h-24c-4.42,0-8,3.58-8,8s3.58,8,8,8h24c4.42,0,8-3.58,8-8S276.42,271.71,272,271.71z"/>
</g>
</svg>
