<?xml version="1.0" encoding="utf-8"?>
<!-- Generator: Adobe Illustrator 25.0.0, SVG Export Plug-In . SVG Version: 6.00 Build 0)  -->
<svg version="1.1" id="Layer_1" xmlns="http://www.w3.org/2000/svg" xmlns:xlink="http://www.w3.org/1999/xlink" x="0px" y="0px"
	 viewBox="0 0 480 480" style="enable-background:new 0 0 480 480;" xml:space="preserve">
<g id="Outline">
	<path d="M472,272h-6.11L261.82,169.97c1.44-3.13,2.18-6.53,2.18-9.97v-4.69c0.03-9.37-3.7-18.36-10.34-24.97
		c-3.17-3.15-5.14-7.31-5.56-11.75c9.53-3.43,15.89-12.46,15.91-22.59V0h-16v57.38c-5.18-1.83-10.82-1.83-16,0V0h-16v96
		c0.01,10.19,6.45,19.26,16.06,22.64c0.46,8.68,4.12,16.88,10.29,23.01c3.63,3.61,5.67,8.53,5.66,13.66V160
		c0,0.96-0.18,1.91-0.52,2.8l-3.91-1.95c-2.25-1.13-4.9-1.13-7.16,0l-3.91,1.95c-0.34-0.89-0.51-1.84-0.51-2.8v-16h-16v16
		c0,3.44,0.74,6.84,2.18,9.97L14.11,272H8c-4.42,0-8,3.58-8,8v56h16v-16h16v-16H16v-16h72v176H16v-16h16v-16H16v-80H0v120
		c0,4.42,3.58,8,8,8h464c4.42,0,8-3.58,8-8v-40h-16v32H192V288h272v128h16V280C480,275.58,476.42,272,472,272z M240,104
		c-4.42,0-8-3.58-8-8V80c0-4.42,3.58-8,8-8s8,3.58,8,8v16C248,100.42,244.42,104,240,104z M176,304h-16v16h16v112h-16v16h16v16h-72
		V288h72V304z M49.89,272l180.25-90.13c6.27,2.84,13.45,2.84,19.72,0L430.11,272H49.89z M400,448V304h16v144H400z M368,448V304h16
		v144H368z M336,448V304h16v144H336z M304,448V304h16v144H304z M272,448V304h16v144H272z M240,448V304h16v144H240z M432,448V304h16
		v144H432z M224,320h-16v-16h16V320z M208,336h16v112h-16V336z"/>
</g>
</svg>
