<?xml version="1.0" encoding="utf-8"?>
<!-- Generator: Adobe Illustrator 25.0.0, SVG Export Plug-In . SVG Version: 6.00 Build 0)  -->
<svg version="1.1" id="Capa_1" xmlns="http://www.w3.org/2000/svg" xmlns:xlink="http://www.w3.org/1999/xlink" x="0px" y="0px"
	 viewBox="0 0 512 271.5" style="enable-background:new 0 0 512 271.5;" xml:space="preserve">
<g>
	<g>
		<path d="M95.8,224.4L95.8,224.4c-4.2,0-7.5,3.4-7.5,7.5s3.4,7.5,7.5,7.5s7.5-3.4,7.5-7.5S99.9,224.4,95.8,224.4z"/>
	</g>
</g>
<g>
	<g>
		<path d="M159.9,224.4L159.9,224.4c-4.2,0-7.5,3.4-7.5,7.5s3.4,7.5,7.5,7.5s7.5-3.4,7.5-7.5C167.4,227.8,164,224.4,159.9,224.4z"/>
	</g>
</g>
<g>
	<g>
		<path d="M424.4,224.4L424.4,224.4c-4.2,0-7.5,3.4-7.5,7.5s3.4,7.5,7.5,7.5s7.5-3.4,7.5-7.5C431.9,227.8,428.6,224.4,424.4,224.4z"
			/>
	</g>
</g>
<g>
	<g>
		<path d="M505.1,133.8L495,123.7l-20.3-60.9c3-1,5.2-3.8,5.2-7.1c0-4.1-3.4-7.5-7.5-7.5h-72.7V15.5c0-8.6-7-15.5-15.5-15.5H15.5
			C7,0,0,7,0,15.5v176.4c0,8.6,7,15.5,15.5,15.5H24v16.5c0,8.6,7,15.5,15.5,15.5h17.3c3.5,18.2,19.6,32.1,38.8,32.1
			c13.2,0,24.9-6.5,32.1-16.4c7.2,9.9,18.9,16.4,32.1,16.4c19.3,0,35.3-13.8,38.8-32.1h186.8c3.5,18.2,19.6,32.1,38.8,32.1
			c21.8,0,39.6-17.7,39.6-39.6c0-0.2,0-0.3,0-0.5h32.6c8.6,0,15.5-7,15.5-15.5v-65.5C512,144.1,509.6,138.2,505.1,133.8z
			 M56.8,224.4H39.6c-0.3,0-0.5-0.2-0.5-0.5v-16.5h25.6C60.8,212.3,58.1,218.1,56.8,224.4z M95.7,256.5c-13.5,0-24.6-11-24.6-24.6
			c0-13.5,10.9-24.5,24.4-24.6h0.3c13.5,0.1,24.4,11.1,24.4,24.6C120.2,245.5,109.2,256.5,95.7,256.5z M159.8,256.5
			c-13.5,0-24.6-11-24.6-24.6c0-13.5,10.9-24.5,24.4-24.6h0.3c13.5,0.1,24.4,11.1,24.4,24.6C184.4,245.5,173.4,256.5,159.8,256.5z
			 M385.5,224.4H198.6c-1.2-6.4-4-12.2-7.9-17.1h145.4c4.1,0,7.5-3.4,7.5-7.5s-3.4-7.5-7.5-7.5H15.5c-0.3,0-0.5-0.2-0.5-0.5V15.5
			c0-0.3,0.2-0.5,0.5-0.5h368.7c0.3,0,0.5,0.2,0.5,0.5v176.9h-16.5c-4.1,0-7.5,3.4-7.5,7.5s3.4,7.5,7.5,7.5h25.1
			C389.5,212.3,386.7,218.1,385.5,224.4z M480.7,128.3h-48.4c-0.3,0-0.5-0.2-0.5-0.5V95.2h37.9L480.7,128.3z M424.3,256.5
			c-13.5,0-24.6-11-24.6-24.6c0-13.5,10.9-24.5,24.4-24.6h0.2c0,0,0,0,0.1,0c13.5,0,24.5,11,24.5,24.6
			C448.9,245.5,437.9,256.5,424.3,256.5z M497,215.9c0,0.3-0.2,0.5-0.5,0.5h-35.8c-6-14.1-20.1-24.1-36.4-24.1c-0.1,0-0.1,0-0.2,0
			h-24.4V63.6v0c0-0.3,0.2-0.5,0.5-0.5H459l5.7,17.1h-40.4c-4.1,0-7.5,3.4-7.5,7.5v40.1c0,8.6,7,15.5,15.5,15.5h61l1.1,1.1
			c1.6,1.6,2.5,3.8,2.5,6v17.9h-8.5c-4.1,0-7.5,3.4-7.5,7.5s3.4,7.5,7.5,7.5h8.5V215.9z"/>
	</g>
</g>
<g>
	<g>
		<path d="M360.2,160.3H39.6c-4.1,0-7.5,3.4-7.5,7.5s3.4,7.5,7.5,7.5h320.6c4.1,0,7.5-3.4,7.5-7.5
			C367.7,163.7,364.4,160.3,360.2,160.3z"/>
	</g>
</g>
</svg>
