<?xml version="1.0" encoding="utf-8"?>
<!-- Generator: Adobe Illustrator 25.0.0, SVG Export Plug-In . SVG Version: 6.00 Build 0)  -->
<svg version="1.1" id="Capa_1" xmlns="http://www.w3.org/2000/svg" xmlns:xlink="http://www.w3.org/1999/xlink" x="0px" y="0px"
	 viewBox="0 0 477.04 502" style="enable-background:new 0 0 477.04 502;" xml:space="preserve">
<path d="M17.54,502V228.2H0V92.98h122.47l-5.34-7.82c-3.87-5.66-6.6-11.97-8.12-18.76c-3.19-14.2-0.66-28.79,7.12-41.08
	C126.17,9.46,143.41,0,162.25,0c10.29,0,20.33,2.92,29.04,8.43c3.76,2.38,15.21,9.63,37.55,51.66c1.73,3.26,3.49,6.65,5.22,10.06
	l4.46,8.78l4.46-8.78c1.73-3.41,3.49-6.79,5.22-10.06c22.34-42.02,33.79-49.27,37.55-51.65C294.46,2.92,304.5,0,314.79,0
	c18.84,0,36.09,9.46,46.12,25.31c11.62,18.36,11.22,41.85-1.04,59.85l-5.32,7.81h122.49V228.2H459.5V502H17.54z M294.22,482H439.5
	V228.2H294.22V482z M202.82,482h71.4V112.98h-71.4V482z M37.54,482h145.28V228.2H37.54V482z M294.22,208.2h162.82v-95.21H294.22
	V208.2z M20,208.2h162.82l0-95.21H20V208.2z M162.21,19.98c-2.54,0-5.09,0.28-7.6,0.84c-8.99,2.03-16.66,7.42-21.59,15.19
	c-4.93,7.79-6.53,17.02-4.51,26.01c2.01,8.97,7.41,16.64,15.19,21.57c4.62,2.93,13.85,5.17,28.24,6.84
	c12.03,1.4,27.32,2.3,43.05,2.54l8.17,0.12l-3.6-7.33c-5.99-12.18-26.49-52.53-38.96-60.43C175.08,21.83,168.71,19.98,162.21,19.98z
	 M314.84,19.98c-6.51,0-12.87,1.85-18.4,5.36c-12.48,7.9-32.98,48.25-38.96,60.43l-3.6,7.33l8.16-0.12
	c13.57-0.2,58.83-1.48,71.3-9.39c16.06-10.16,20.85-31.5,10.69-47.57c-4.94-7.78-12.6-13.17-21.58-15.19
	C319.92,20.26,317.37,19.98,314.84,19.98z"/>
</svg>
