<?xml version="1.0" encoding="utf-8"?>
<!-- Generator: Adobe Illustrator 25.0.0, SVG Export Plug-In . SVG Version: 6.00 Build 0)  -->
<svg version="1.1" id="Capa_1" xmlns="http://www.w3.org/2000/svg" xmlns:xlink="http://www.w3.org/1999/xlink" x="0px" y="0px"
	 viewBox="0 0 1103.75 841.79" style="enable-background:new 0 0 1103.75 841.79;" xml:space="preserve">
<path d="M1011.77,133.55H769.68V91.98C769.68,41.18,728.5,0,677.7,0H426.05c-50.8,0-91.98,41.18-91.98,91.98v41.57H91.98
	C41.18,133.55,0,174.73,0,225.53v524.28c0,50.8,41.18,91.98,91.98,91.98h919.79c50.8,0,91.98-41.18,91.98-91.98V225.53
	C1103.75,174.73,1062.57,133.55,1011.77,133.55z M380.06,91.98c0-25.4,20.59-45.99,45.99-45.99H677.7
	c25.4,0,45.99,20.59,45.99,45.99v41.57H380.06V91.98z M1057.76,749.81c0,25.4-20.59,45.99-45.99,45.99H91.98
	c-25.4,0-45.99-20.59-45.99-45.99v-391.1l345.66,84.07v45.99c0.05,27.92,22.67,50.54,50.59,50.59h219.28
	c27.92-0.05,50.54-22.67,50.59-50.59v-45.99l345.66-84.62V749.81z M437.64,488.69V387.51c0-2.54,2.06-4.6,4.6-4.6h219.28
	c2.54,0,4.6,2.06,4.6,4.6v101.18c-0.05,2.52-2.08,4.55-4.6,4.6H442.24C439.72,493.24,437.69,491.21,437.64,488.69z M1057.76,310.52
	L712.1,395.23v-7.45c0-27.94-22.65-50.59-50.59-50.59H442.24c-27.94,0-50.59,22.65-50.59,50.59v7.63L45.99,311.44v-85.91
	c0-25.4,20.59-45.99,45.99-45.99h919.79c25.4,0,45.99,20.59,45.99,45.99V310.52z"/>
</svg>
