<?xml version="1.0" encoding="utf-8"?>
<!-- Generator: Adobe Illustrator 25.0.0, SVG Export Plug-In . SVG Version: 6.00 Build 0)  -->
<svg version="1.1" id="Capa_1" xmlns="http://www.w3.org/2000/svg" xmlns:xlink="http://www.w3.org/1999/xlink" x="0px" y="0px"
	 viewBox="0 0 1566.48 1591.14" style="enable-background:new 0 0 1566.48 1591.14;" xml:space="preserve">
<g>
	<path d="M1187.19,716.86l-43.62,26.55v-32.24l-37.93-20.86l56.89-32.24V218.09L783.24,0L403.95,218.09v438.08l56.89,32.24
		l-37.93,20.86v32.24l-43.62-24.65L0,934.96v438.08l379.29,218.09l379.29-218.09v-53.1l24.65,13.28l24.65-13.28v53.1l379.29,218.09
		l379.29-218.09V936.86L1187.19,716.86z M1490.62,1331.32l-303.43,174.47l-303.43-174.47v-53.1l259.82-151.72V830.65l43.62-24.65
		l303.43,174.48V1331.32z M883.75,980.47l221.89-128.96v252.23L883.75,1232.7V980.47z M479.81,261.71L783.24,87.24l303.43,174.48
		v350.85l-56.89,32.24L783.24,502.56L536.7,644.8l-56.89-32.24V261.71z M783.24,546.18l208.61,121.37L783.24,788.93L574.63,667.56
		L783.24,546.18z M379.29,1505.8L75.86,1331.32V980.47L379.29,806l43.62,24.65v295.85l259.82,149.82v53.1L379.29,1505.8z
		 M460.84,1105.64V851.51l221.89,128.96v252.23L460.84,1105.64z M783.24,1291.49l-24.65-13.28V936.86L460.84,764.28v-32.24
		l37.93-20.86l284.47,164.99l284.47-164.99l37.93,20.86v32.24L807.9,936.86v341.36L783.24,1291.49z"/>
</g>
</svg>
