<?xml version="1.0" encoding="utf-8"?>
<!-- Generator: Adobe Illustrator 25.0.0, SVG Export Plug-In . SVG Version: 6.00 Build 0)  -->
<svg version="1.1" id="Capa_1" xmlns="http://www.w3.org/2000/svg" xmlns:xlink="http://www.w3.org/1999/xlink" x="0px" y="0px"
	 viewBox="0 0 1108.93 1110.48" style="enable-background:new 0 0 1108.93 1110.48;" xml:space="preserve">
<g>
	<path d="M250,868.45c0.93,63.3,0,127.4,0,190.7h608.92V726.96H250V868.45z M198.67,894.38H25.67C11.44,894.38,0,882.95,0,868.72
		V242.11c0-14.23,11.44-25.67,25.67-25.67h173.01V32.67C198.67,18.44,210.11,7,224.34,7h660.25c14.23,0,25.67,11.44,25.67,25.67
		v183.78h173.01c14.1,0,25.67,11.44,25.67,25.67v626.61c0,14.23-11.57,25.67-25.67,25.67H910.26v190.43
		c0,14.23-11.44,25.67-25.67,25.67H224.34c-14.23,0-25.67-11.44-25.67-25.67V894.38z M51.33,843.05h147.34V701.29
		c0-14.1,11.44-25.67,25.67-25.67h660.25c14.23,0,25.67,11.57,25.67,25.67v141.76h147.34V581.08H51.33V843.05z M51.33,267.78v261.97
		H1057.6V267.78H910.26v148.41c0,14.1-11.44,25.67-25.67,25.67H224.34c-14.23,0-25.67-11.57-25.67-25.67V267.78H51.33z M250,58.33
		v332.19h608.92V58.33H250z"/>
	<path d="M976.61,406.34c69.28,0,69.28,105.99,0,105.99S907.33,406.34,976.61,406.34z"/>
	<path d="M768.76,811.14c33.78,0,33.78,51.33,0,51.33h-428.6c-33.78,0-33.78-51.33,0-51.33H768.76z"/>
	<path d="M768.76,910.47c33.78,0,33.78,51.33,0,51.33h-428.6c-33.78,0-33.78-51.33,0-51.33H768.76z"/>
</g>
</svg>
