<?xml version="1.0" encoding="utf-8"?>
<!-- Generator: Adobe Illustrator 25.0.0, SVG Export Plug-In . SVG Version: 6.00 Build 0)  -->
<svg version="1.1" id="Capa_1" xmlns="http://www.w3.org/2000/svg" xmlns:xlink="http://www.w3.org/1999/xlink" x="0px" y="0px"
	 viewBox="0 0 1662.03 1662.03" style="enable-background:new 0 0 1662.03 1662.03;" xml:space="preserve">
<style type="text/css">
	.st0{fill-rule:evenodd;clip-rule:evenodd;}
</style>
<g>
	<path d="M969.36,162.6c25.74,5.3,51.07,12.09,76.03,20.34l79.57-93.17c15.55-18.19,40.19-25.22,61.69-12.85l119.65,69
		c21.42,12.48,27.66,37.23,19.74,59.8l-40.98,115.77c19.45,17.41,38.09,36,55.47,55.47l115.77-40.98
		c22.57-7.92,47.32-1.68,59.8,19.74l69,119.65c12.37,21.5,5.35,46.14-12.85,61.69l-93.15,79.54c8.28,24.96,15.02,50.31,20.37,76.05
		l120.33,22.28c23.62,4.33,42.21,22.15,42.21,47.06v138c0,24.91-18.59,42.73-42.21,47.06l-120.39,22.28
		c-5.3,25.74-12.09,51.07-20.34,76.03l93.17,79.57c18.19,15.55,25.22,40.19,12.85,61.69c-23.02,39.88-45.98,79.75-69,119.65
		c-12.48,21.42-37.23,27.66-59.8,19.74l-115.77-40.98c-17.41,19.61-35.86,38.07-55.47,55.47l40.98,115.77
		c7.92,22.57,1.68,47.32-19.74,59.8l-119.65,69c-21.5,12.37-46.14,5.35-61.69-12.85l-79.57-93.17
		c-24.88,8.28-50.36,15.07-76.03,20.34l-22.28,120.39c-4.33,23.62-22.15,42.21-47.06,42.21h-138c-24.91,0-42.73-18.59-47.06-42.21
		l-22.28-120.39c-25.67-5.27-51.15-12.06-76.03-20.34l-79.57,93.17c-15.55,18.19-40.19,25.22-61.69,12.85l-119.65-69
		c-21.42-12.48-27.66-37.23-19.74-59.8l40.98-115.77c-19.61-17.41-38.07-35.86-55.47-55.47l-115.77,40.98
		c-22.57,7.92-47.32,1.68-59.8-19.74c-23.02-39.9-45.98-79.78-69-119.65c-12.37-21.5-5.35-46.14,12.85-61.69l93.17-79.57
		c-8.26-24.96-15.05-50.28-20.34-76.03L42.21,947.08C18.59,942.75,0,924.92,0,900.02v-138c0-24.91,18.59-42.73,42.21-47.06
		l120.33-22.28c5.35-25.74,12.09-51.1,20.37-76.05l-93.15-79.54c-18.19-15.55-25.22-40.19-12.85-61.69l69-119.65
		c12.48-21.42,37.23-27.66,59.8-19.74l115.77,40.98c17.38-19.48,36.02-38.07,55.47-55.47l-40.98-115.77
		c-7.92-22.57-1.68-47.32,19.74-59.8l119.65-69c21.5-12.37,46.14-5.35,61.69,12.85l79.57,93.17c24.96-8.26,50.28-15.05,76.03-20.34
		l22.28-120.39C719.28,18.59,737.11,0,762.01,0h138c24.91,0,42.73,18.59,47.06,42.21C947.08,42.21,969.36,162.6,969.36,162.6z
		 M888.98,1601.31l28.52-154.05c53.93-9.33,95.4-20.4,146.81-39.27l101.72,119.15c33.43-19.32,66.88-38.54,100.31-57.83
		l-52.38-147.89c41.82-34.97,72.49-65.65,107.46-107.46l147.84,52.38c19.35-33.48,38.59-66.77,57.94-100.25l-119.18-101.77
		c18.82-51.44,29.89-92.89,39.22-146.81l154.08-28.52V773.05l-154.05-28.52c-9.31-53.95-20.4-95.43-39.25-146.84l119.13-101.69
		c-19.32-33.43-38.54-66.88-57.83-100.3l-147.86,52.38c-34.5-41.27-65.96-72.75-107.49-107.49l52.38-147.86
		c-33.43-19.3-66.88-38.51-100.31-57.83l-101.72,119.13c-51.44-18.82-92.89-29.89-146.81-39.22L888.98,60.72H773.05l-28.52,154.08
		c-53.93,9.33-95.38,20.4-146.81,39.22L495.99,134.88c-33.43,19.32-66.88,38.54-100.31,57.83l52.38,147.86
		c-41.53,34.74-72.99,66.22-107.49,107.49l-147.86-52.38c-19.3,33.43-38.51,66.88-57.83,100.3l119.13,101.69
		c-18.85,51.41-29.94,92.89-39.25,146.84L60.72,773.05v115.93l154.08,28.52c9.33,53.93,20.4,95.38,39.22,146.81l-119.18,101.77
		c19.35,33.48,38.59,66.77,57.94,100.25l147.84-52.38c34.97,41.82,65.65,72.49,107.46,107.46l-52.38,147.89
		c33.43,19.3,66.88,38.51,100.31,57.83l101.72-119.15c51.41,18.88,92.89,29.94,146.81,39.27l28.52,154.05
		C773.05,1601.31,888.98,1601.31,888.98,1601.31z"/>
	<path d="M593.99,1241.57c-214.95-124.11-297.95-393.51-189.86-616.75c6.69-17.33,27.4-24.7,43.6-15.36
		c14.37,8.31,18.74,26.4,11.38,41.11c-94.69,194.74-22.47,430.06,165.24,538.41c176.25,101.77,393.8,60.32,524.78-93.93
		c129.35-160.45,127.68-387.53-11.72-541.43c-145.4-160.68-390.65-181.76-561.06-48.19c-12.87,10.3-31.43,9.83-42.58-2.46
		c-12.56-13.87-9.7-35.68,5.82-45.88c195.45-152.66,476.3-128.23,642.86,55.79c160.5,177.28,160.89,439.37,14.39,619.74
		C1051.63,1309.03,796.8,1358.71,593.99,1241.57z"/>
	<path class="st0" d="M484.2,519.75c17.96,0,32.56,14.58,32.56,32.53c0,17.98-14.6,32.56-32.56,32.56
		c-17.98,0-32.56-14.58-32.56-32.56C451.63,534.32,466.21,519.75,484.2,519.75z"/>
	<path d="M856.66,1042.77c63.47-12.56,107.17-57.55,107.54-123.74c0-70.23-44.2-101.56-103.32-127.96
		c-26.01-12.66-73.33-33.79-73.33-67.9c0-32.48,31.83-47.85,60.69-48.03c28.94,0.24,56.68,8.44,82.29,21.6l18.04-65.46
		c-26.19-13.97-57.02-20.71-86.52-21.63v-63.68H803.2v68.48c-60.35,13.89-101.17,56.23-101.54,118.97
		c0.68,63.73,46.98,95.19,99.73,119.52c31.93,13.79,75.48,33.71,75.08,74.51c0,80.25-117.32,52.49-160.97,26.4l-18.04,67.3
		c28.05,16.44,68.14,25.19,100.33,26.43v68.48h58.86C856.66,1116.04,856.66,1042.77,856.66,1042.77z"/>
</g>
</svg>
