<?xml version="1.0" encoding="utf-8"?>
<!-- Generator: Adobe Illustrator 25.0.0, SVG Export Plug-In . SVG Version: 6.00 Build 0)  -->
<svg version="1.1" id="Capa_1" xmlns="http://www.w3.org/2000/svg" xmlns:xlink="http://www.w3.org/1999/xlink" x="0px" y="0px"
	 viewBox="0 0 1113.91 1761.33" style="enable-background:new 0 0 1113.91 1761.33;" xml:space="preserve">
<path d="M1113.91,522.66C1113.91,244.25,853.61,0,556.95,0S0,244.25,0,522.66c0,250.22,95.27,343.02,179.23,424.92
	c79.63,77.58,148.29,144.79,149.12,338.08c-2.67,4.87-4.53,10.15-4.53,16.12v252.34c0,70.92,56.79,128.54,127.17,130.46
	c14.34,44.45,55.49,76.75,104.74,76.75c49.11,0,90.33-32.24,104.81-76.55c71.54-0.62,129.64-58.92,129.64-130.73v-252.34
	c0-0.07-0.07-0.14-0.07-0.21c0-2.33-0.89-4.6-1.37-6.93c-0.48-2.13-0.55-4.46-1.37-6.45c0-0.07,0-0.14-0.07-0.27
	c-0.27-0.69-0.89-1.1-1.23-1.71c3.22-185.67,70.65-254.81,148.98-333.69C1018.84,868.22,1113.91,772.53,1113.91,522.66z
	 M469.71,945.31c-37.52-160.16-84.09-359.55-44.1-410.03c3.77-4.73,9.6-9.6,23.87-9.6c20.71,0,46.09,20.03,68.8,48.84
	c-28.46,50.21-46.57,107.14-46.57,150.28c0,26.27,6.24,47.88,18.66,64.2c10.49,13.92,30.52,30.45,65.92,30.45
	c37.38,0,58.64-16.94,69.89-31.14c13.58-17.15,20.51-39.85,20.51-67.49c0-42.8-17.83-97.74-46.16-146.44
	c21.61-28.88,44.72-48.77,61.32-48.77c18.86,0,26.48,6.52,30.87,12.21c40.81,52.27-7.61,246.65-46.64,402.9
	c-28.88,115.71-57.27,233.48-63.38,326.7h-54.05C522.86,1176.6,496.53,1060,469.71,945.31z M540.29,724.79
	c0-24.14,7.68-52.4,19.55-79.84c11.18,26.2,18.25,52.95,18.25,75.93c0,11.32-2.06,20.37-5.69,24.9c-0.96,1.23-4.05,5.08-16.05,5.08
	c-8.78,0-10.56-2.47-11.32-3.36C543.92,746.13,540.29,740.16,540.29,724.79z M721.5,1421.95L394.6,1565.3
	c-0.69-3.77-2.26-7.2-2.26-11.18v-55.49l329.17-144.31V1421.95z M592.14,1336.07l-199.8,87.59v-87.59H592.14z M659.36,1616.33
	H454.55c-1.37,0-2.47-0.69-3.77-0.75l270.79-118.66v57.2C721.5,1588.42,693.65,1616.33,659.36,1616.33z M718.42,1267.48h-66.94
	c6.31-86.22,33.47-198.98,61.25-310.1c51.24-205.57,95.55-383.01,34.09-461.61c-13.72-17.63-39.65-38.62-84.91-38.62
	c-36.35,0-72.43,24.21-103.16,59.61c-32.17-35.46-70.17-59.61-109.2-59.61c-32.31,0-59.06,12.28-77.58,35.6
	c-60.63,76.41-18.18,257.97,31,468.2c25.58,109.54,51.99,222.44,58.16,306.6h-65.16c-5.62-207.97-88.21-290.41-168.87-369.02
	C145.62,819.11,68.52,744.07,68.52,522.73c0-241.85,228.2-454.07,488.36-454.07s488.36,212.22,488.36,454.07
	c0,221.62-77.23,299.33-158.92,381.57C807.24,983.79,726.51,1067.47,718.42,1267.48z"/>
</svg>
