<?xml version="1.0" encoding="utf-8"?>
<!-- Generator: Adobe Illustrator 25.0.0, SVG Export Plug-In . SVG Version: 6.00 Build 0)  -->
<svg version="1.1" id="Capa_1" xmlns="http://www.w3.org/2000/svg" xmlns:xlink="http://www.w3.org/1999/xlink" x="0px" y="0px"
	 viewBox="0 0 1650.83 1640.18" style="enable-background:new 0 0 1650.83 1640.18;" xml:space="preserve">
<path d="M231.92,1183.25c-14.18,12.72-27.95,25.9-41.32,39.51c-3.9,3.95-7.66,8.04-11.5,12.07c-9.8,10.34-19.38,20.92-28.74,31.74
	c-4.06,4.71-8.23,9.31-12.2,14.07c-11.01,13.29-21.65,26.98-31.96,40.94c-4.68,6.33-9.2,12.83-13.75,19.29
	c-7.25,10.34-14.26,20.89-21.14,31.58c-3.63,5.66-7.39,11.2-10.91,16.97c-0.16,0.32-0.35,0.6-0.54,0.92
	c-0.08,0.11-0.08,0.27-0.14,0.38C37.4,1427.48,17.29,1465.96,0,1506.28l49.74,21.32c6.01-14.02,12.8-27.55,19.48-41.13l19.35,116.12
	c2.14,13.02,13.42,22.6,26.66,22.6h108.25c3.44,0,6.85-0.65,10.07-1.92l128.57-51.44l182.26,26.03
	c12.42,1.84,24.33-5.14,28.96-16.72l50.82-127.11l209-130.63c6.77-4.22,11.31-11.23,12.45-19.13l27.06-189.43
	c1.98-13.72-6.77-26.71-20.22-30.09l-104.05-26.01l-63.89-40.32c4.44-0.84,8.88-1.73,13.34-2.49c14.29-2.46,28.6-4.52,43-6.28
	c6.95-0.84,13.94-1.65,20.95-2.33c14.21-1.38,28.47-2.35,42.73-3.03c7.39-0.35,14.8-0.65,22.24-0.81
	c14.78-0.32,29.55-0.27,44.35,0.14c5.47,0.16,10.93,0.3,16.4,0.57c0.38,0.03,0.78,0.03,1.16,0.05c15.1,0.73,30.2,2,45.27,3.52
	c5.82,0.6,11.64,1.06,17.43,1.79c14.97,1.81,29.85,4.25,44.73,6.85c5.87,1.03,11.83,1.84,17.67,3c15.42,3.03,30.71,6.77,46,10.64
	c19.59,5.01,38.97,10.64,58.1,16.97c8.39,2.79,16.72,5.71,25.03,8.74c11.01,4.03,21.97,8.17,32.83,12.64
	c8.33,3.44,16.53,7.14,24.73,10.85c3,1.35,5.98,2.79,8.98,4.17l-100.37,28.69c-7.74,2.22-14.1,7.77-17.35,15.13
	c-3.25,7.36-3.03,15.8,0.57,23l18.35,36.67l-94.44,94.44c-10.58,10.58-10.58,27.68,0,38.27l108.25,108.25
	c5.74,5.74,13.61,8.69,21.81,7.79c8.06-0.78,15.34-5.17,19.84-11.91l100.18-150.33H1333v92.52l-175.79,100.45
	c-2.08,1.19-4.01,2.65-5.71,4.36l-54.12,54.12c-9.12,9.12-10.55,23.41-3.38,34.15l54.12,81.18l45.03-30.01l-41.81-62.73l35.88-35.88
	l186.29-106.46c8.42-4.79,13.61-13.75,13.61-23.46v-135.31c0-14.94-12.12-27.06-27.06-27.06h-108.25c-9.04,0-17.48,4.52-22.52,12.04
	l-89.93,134.9l-65.79-65.76l89.11-89.11c8.23-8.23,10.28-20.81,5.09-31.23l-12.48-24.95l124.4-35.53c1.06,0.62,2.17,1.14,3.22,1.76
	c4.14,2.44,8.06,5.14,12.18,7.63c13.15,8.01,26.25,16.16,39.02,24.87c11.66,7.98,23.03,16.32,34.26,24.82
	c3,2.27,6.12,4.33,9.09,6.63c91.93,71.52,168.84,160.99,225.86,263.55l0.11-0.05c0.03,0.05,0.05,0.08,0.08,0.14l47.3-26.28
	c-31.23-56.23-67.98-108.27-109.14-155.82c-0.76-0.87-1.6-1.68-2.35-2.57c-12.88-14.75-26.11-29.09-39.86-42.92
	c-2.92-2.95-6.03-5.68-8.98-8.61c-11.77-11.53-23.65-22.92-35.99-33.77c-4.68-4.11-9.58-7.98-14.34-12.02
	c-10.93-9.26-21.89-18.46-33.23-27.17c-6.17-4.74-12.58-9.17-18.86-13.77c-0.41-0.3-0.78-0.57-1.19-0.87l52.01-124.86l80.91-175.3
	l80.97-161.94c3.3-6.6,3.76-14.29,1.27-21.24c-2.49-6.95-7.74-12.58-14.48-15.59l-7.33-3.25l47.6-95.23
	c6.12-12.2,2.17-27.06-9.2-34.61l-81.18-54.12l-81.18-54.12c-6.47-4.33-14.5-5.66-21.97-3.63c-7.5,1.98-13.77,7.12-17.27,14.04
	l-63.46,126.95l-9.58-4.25c-13.29-5.9-28.74-0.32-35.21,12.61L1227.59,693l-81.18,162.37c-0.14,0.27-0.11,0.54-0.22,0.81
	c-0.11,0.24-0.35,0.41-0.43,0.62L1100,963.62l-38.05-209.21c-2.35-12.88-13.56-22.24-26.63-22.24h-33.72l-48.52-169.81
	c-3.3-11.61-13.94-19.62-26.01-19.62h-4.14l-50.36-302.14c-0.14-0.87-0.62-1.57-0.87-2.41c16.78-9.2,28.31-26.79,28.31-47.25v-54.12
	c0-29.85-24.27-54.12-54.12-54.12V1.5h-54.12v81.18c-29.85,0-54.12,24.27-54.12,54.12v54.12c0,20.46,11.53,38.05,28.28,47.28
	c-0.22,0.84-0.7,1.54-0.87,2.41l-50.33,302.11h-4.14c-12.07,0-22.7,8.01-26.01,19.62l-48.52,169.81h-33.72
	c-13.07,0-24.27,9.36-26.63,22.22l-39,214.44L438.02,722.1L329.77,451.48c-0.14-0.35-0.46-0.6-0.62-0.95
	c-1.14-2.54-2.68-4.84-4.55-6.95c-0.43-0.49-0.81-1-1.27-1.46c-0.27-0.24-0.43-0.57-0.7-0.81L79.07,224.81
	c-7.66-6.79-18.48-8.69-28.04-4.9c-9.53,3.82-16.07,12.66-16.91,22.89L7.06,567.55c-0.03,0.35,0.05,0.7,0.05,1.06
	c-0.03,0.65,0.08,1.3,0.08,1.95c0.08,2.81,0.57,5.57,1.49,8.17c0.14,0.38,0.05,0.76,0.22,1.11l108.25,270.61l128.38,320.98
	c-2.03,1.76-4.06,3.49-6.09,5.28C236.95,1178.89,234.41,1181.03,231.92,1183.25z M677.57,964.08
	c33.2-43.24,85.03-69.55,141.26-69.55c51.99,0,100.34,22.65,133.6,60.43c-2.65-0.3-5.28-0.35-7.9-0.62
	c-7.69-0.81-15.34-1.6-23.06-2.22c-9.47-0.78-19-1.38-28.52-1.87c-5.01-0.27-10.04-0.65-15.02-0.81c-5.3-0.19-10.61-0.14-15.91-0.22
	c-5.39-0.11-10.72-0.57-16.13-0.57c-5.17,0-10.26,0.49-15.43,0.57c-2.38,0.05-4.79-0.05-7.17,0c-9.42,0.22-18.78,0.78-28.17,1.3
	c-9.53,0.51-19.05,1.03-28.55,1.84c-4.28,0.38-8.55,0.7-12.83,1.14c-8.82,0.89-17.62,2.11-26.41,3.25c-7.85,1-15.72,1.84-23.54,3.06
	c-4.25,0.65-8.47,1.54-12.72,2.27C686.6,962.83,682.06,963.24,677.57,964.08z M731.07,1110.21l84.57,21.14l-21.84,152.82
	l-205.8,128.62c-4.87,3.06-8.66,7.58-10.8,12.91l-46.22,115.58l-168.38-24.06c-4.74-0.68-9.5-0.11-13.88,1.65l-130.44,52.2h-80.1
	L111.33,1410c0.3-0.46,0.6-0.89,0.89-1.35c8.33-13.29,17.1-26.25,26.09-39c4.28-6.06,8.63-12.04,13.04-17.97
	c8.44-11.37,17.13-22.52,26.09-33.42c4.11-5.01,8.33-9.93,12.56-14.86c9.39-10.91,19.05-21.6,28.96-31.99
	c3.6-3.79,7.2-7.6,10.88-11.31c12.56-12.72,25.44-25.11,38.73-37.02c1.92-1.7,3.9-3.36,5.82-5.03c8.82-7.74,18.02-15.05,27.14-22.43
	c13.72-11.1,27.77-21.68,42.08-31.88c4.65-3.33,9.26-6.74,13.99-9.96c14.96-10.23,30.31-19.84,45.84-29.09
	c4.11-2.44,8.09-5.06,12.23-7.44c19.13-10.96,38.64-21.22,58.62-30.69c1.49-0.7,3-1.41,4.52-2.11
	c20.05-9.39,40.48-18.02,61.29-25.87c10.96-4.14,22.16-7.74,33.31-11.42c12.34-4.09,24.79-7.82,37.29-11.34l112.55,71.04
	C725.63,1108.37,728.28,1109.51,731.07,1110.21z M1144.05,998.15l40.13-93.63l195.28,97.64l-38.08,91.41
	c-5.82-3.73-11.83-7.04-17.7-10.61c-5.93-3.6-11.85-7.23-17.86-10.72c-2.38-1.38-4.68-2.87-7.06-4.22c-0.68-0.38-1.3-0.84-1.98-1.22
	c-0.03,0-0.05,0-0.08-0.03c-9.36-5.28-18.92-10.09-28.44-15.02c-4.11-2.14-8.17-4.36-12.34-6.44c-15.83-7.9-31.88-15.32-48.12-22.3
	c-1.35-0.6-2.71-1.24-4.06-1.81C1184.1,1012.9,1164.27,1005.08,1144.05,998.15z M1530.71,601l-39.05-17.35l41.27-82.56l35.8,23.87
	L1530.71,601z M1451.74,446.93l35.8,23.87l-45.41,90.82l-39.05-17.35L1451.74,446.93z M1340.63,588.01c1.41,1.49,2.65,3.11,4.44,4.3
	l81.18,54.12l81.18,54.12c3.63,2.44,7.79,3.63,12.04,4.11l-36.72,73.44l-64.68-28.74l-129.35-57.51L1340.63,588.01z M1264.45,740.34
	l32.47,14.42l162.37,72.17l-57.99,125.62l-194.38-97.18L1264.45,740.34z M791.77,136.81h54.12l0.03,54.12h-54.15V136.81z
	 M814.69,272.12h8.28l45.11,270.62H769.6L814.69,272.12z M730.99,596.86h6.66h162.37h6.66l38.67,135.31h-253L730.99,596.86z
	 M624.9,786.29h31.55H981.2h31.55l33.53,184.45c-2.76-0.62-5.57-1-8.33-1.57c-4.47-0.95-8.93-1.92-13.42-2.81
	c-39.7-76.77-118.56-125.94-205.69-125.94c-92.79,0-176.36,55.02-213.16,140.15c-3.79,1.03-7.5,2.25-11.26,3.3
	c-1.89,0.54-3.79,0.92-5.68,1.46L624.9,786.29z M493.57,1018.8c-10.77,4.44-21.41,9.12-31.96,13.96c-3.6,1.65-7.23,3.25-10.82,4.95
	c-18.08,8.58-35.86,17.7-53.28,27.39c-1.89,1.06-3.71,2.16-5.6,3.22c-0.43,0.24-0.87,0.51-1.33,0.76c-0.73,0.41-1.43,0.84-2.14,1.24
	c-15.45,8.82-30.61,18.1-45.49,27.79c-1.87,1.22-3.79,2.41-5.66,3.63c-16.29,10.8-32.23,22.06-47.79,33.88L177.47,855.48
	l220.36-88.14l99.86,249.62C496.28,1017.53,494.95,1018.23,493.57,1018.8z M69.22,584.87l220.36-88.14l88.14,220.33l-220.36,88.17
	L69.22,584.87z M83.59,301.24l170.38,151.44L64.65,528.39L83.59,301.24z"/>
<path d="M3674.1,1003.15c-2.05,0-3.71,1.66-3.71,3.71s1.66,3.71,3.71,3.71s3.71-1.66,3.71-3.71S3676.15,1003.15,3674.1,1003.15z
	 M3674.1,1008.1c-0.68,0-1.24-0.56-1.24-1.24s0.56-1.24,1.24-1.24s1.24,0.56,1.24,1.24S3674.78,1008.1,3674.1,1008.1z"/>
</svg>
